<?xml version="1.0" encoding="UTF-8"?>
<svg id="Layer_2" xmlns="http://www.w3.org/2000/svg" xmlns:xlink="http://www.w3.org/1999/xlink" viewBox="0 0 573.36 74.15">
  <defs>
    <style>
      .cls-1 {
        fill: none;
      }

      .cls-2 {
        fill: #fff;
      }

      .cls-3 {
        fill: #369992;
      }

      .cls-4 {
        fill: #cc6c20;
      }

      .cls-5 {
        clip-path: url(#clippath);
      }
    </style>
    <clipPath id="clippath">
      <path class="cls-1" d="M314.06,34.2c1.39,0,2.74.39,3.92,1.12l.13.08.76.53c3.21-7.45,10.59-12.68,19.21-12.68,11.57,0,20.95,9.38,20.95,20.95,0,3.41-.82,6.63-2.28,9.48l7.4-2.74c.77-.28,1.58-.43,2.4-.43,1.32,0,2.61.38,3.72,1.09l9.29,5.95c.18.11.36.21.54.32,1.4-4.3,2.17-8.89,2.17-13.67,0-24.42-19.79-44.21-44.21-44.21s-44.21,19.79-44.21,44.21c0,.79.03,1.57.07,2.34l15.9-11.03c1.24-.86,2.7-1.32,4.22-1.32Z"/>
    </clipPath>
  </defs>
  <g id="Layer_1-2" data-name="Layer_1">
    <g>
      <g>
        <path class="cls-3" d="M179.12,69.27c-.41-5.63-.28-11.32-1.6-16.87-.98-4.12-2.91-7.7-6.23-10.43-.77-.64-1.61-1.2-2.59-1.94,1.36-.89,2.63-1.63,3.79-2.51,3.86-2.9,6.1-6.79,6.34-11.6.12-2.5-.15-5.06-.57-7.54-1.11-6.58-5.22-10.69-11.33-12.92-4-1.46-8.21-2.02-12.43-2.04-18.93-.1-37.85-.07-56.78-.08-1.89,0-1.9,0-1.9,1.86,0,22.05,0,44.09,0,66.14-5.51-11.09-30.13-60.72-33.14-66.88-.38-.78-.84-1.13-1.69-1.12-8.29.01-16.58.01-24.87,0-.85,0-1.34.34-1.71,1.12-1.44,3.02-29.76,60.05-32.03,64.65-.78,1.58-1.54,3.17-2.38,4.88.54.05.88.12,1.22.12,7.9,0,15.8,0,23.69.02.92,0,1.38-.39,1.76-1.21,1.06-2.29,2.26-4.52,3.3-6.81.4-.89,1-1.06,1.85-1.05,2.93.02,24.98.02,33.08,0,1.02,0,1.63.31,2.07,1.31,1,2.23,2.23,4.36,3.19,6.61.44,1.03,1.06,1.17,1.99,1.16,7.82-.01,38.62,0,45.27,0q1.7,0,1.7-1.76c0-7.77,0-15.54,0-23.3,0-1.59.04-1.64,1.64-1.64,5.36,0,10.72-.06,16.07.03,2.33.04,4.68.22,6.97.62,5.96,1.04,8.36,4.91,9.06,9.74.72,4.97.99,10.01,1.39,15.03.08,1.01.38,1.32,1.4,1.31,5.24-.05,10.48-.02,15.72-.02,2.31,0,4.61-.02,6.92,0,.89,0,1.29-.3,1.17-1.24-.15-1.2-.25-2.41-.33-3.61ZM55.65,45.8c-4.81.02-9.62.02-14.43,0-1.16,0-1.33-.38-.82-1.46,2.25-4.7,4.47-9.4,6.71-14.1.3-.63.86-1.79,1.29-2.63.38.61,5.6,11.74,8.02,16.91.48,1.02.31,1.27-.78,1.27ZM151.95,29.79c-.49.18-1.08.17-1.62.17-4.89.01-9.77,0-14.66,0-4.96,0-9.93,0-14.89,0-1.61,0-1.66-.06-1.67-1.62,0-1.76.02-3.51,0-5.27-.02-.98.37-1.42,1.38-1.42,10.01.02,20.01-.01,30.02.03,2.36.01,3.19,1.35,3.7,3.39.46,1.81-.72,4.14-2.26,4.71Z"/>
        <path class="cls-3" d="M207.64,3.34c-6.57,0-13.14,0-19.71,0-1.66,0-1.7.03-1.7,1.71,0,22.52,0,45.04-.02,67.56,0,1.17.31,1.55,1.52,1.54,6.73-.05,13.45-.02,20.18-.03,1.63,0,1.63,0,1.63-1.6,0-11.24,0-56.13,0-67.33,0-1.85,0-1.85-1.89-1.85Z"/>
        <path class="cls-3" d="M573.05,73.2c-2.46-4.94-30.82-62.1-34.06-68.74-.38-.78-.84-1.13-1.69-1.12-8.29.01-16.58.01-24.87,0-.85,0-1.34.34-1.71,1.12-1.44,3.02-29.76,60.05-32.03,64.65-.35.71-.69,1.42-1.04,2.14-.02-22.15-.03-44.31,0-66.46,0-1.09-.32-1.49-1.47-1.48-6.53.05-13.06.02-19.59.02q-2.34,0-2.34,2.29c0,11.51,0,23.03,0,34.54v1.61l-.4.27c-.49-.38-1.02-.71-1.46-1.14-12.35-12.19-24.69-24.38-37.01-36.59-.73-.72-1.48-1-2.5-1-6.73.03-13.45.02-20.18.02-1.65,0-1.67.02-1.67,1.73,0,18.81,0,37.61-.02,56.42,0,1.99,0,3.98,0,5.96h0s-7.92-2.13-7.92-2.13c-2.34-.63-4.57-1.61-6.61-2.92l-9.29-5.95c-.3-.19-.68-.23-1.02-.11l-15.44,5.71c-.31.12-.66.08-.95-.1l-8.01-3.79c-2.4-1.14-4.7-2.47-6.87-3.99l-6.83-4.78-2.14-1.5-11.01-7.71c-.56-.35-1.26-.33-1.8.04l-20.67,14.34c-.24.17-1.59-.07-3.34-1.07-2.88-1.65-6.62-3.12-7.39-3.36-1.25-.38-2.93-.32-6.63,1.49-3.69,1.8-11.66,3.07-11.71,3.08-2.35,0-4.7,0-7.04,0h-.77c-.43,0-.87.03-1.29-.04-.24-.04-.57-.18-.65-.36-.06-.15.13-.48.3-.65.33-.33.66-.64,1-.96.59-.58,1.18-1.15,1.78-1.72.44-.42.89-.83,1.33-1.25,10.3-9.68,20.59-19.37,30.9-29.03.77-.72,1.12-1.47,1.11-2.54-.05-4.33-.02-8.66-.02-13,0-1.85,0-1.85-1.92-1.85-22.72,0-45.44,0-68.15,0-1.71,0-1.8.08-1.8,1.76,0,5.23,0,10.46,0,15.69,0,1.97,0,1.97,1.93,1.97,10.64,0,21.27,0,31.91,0,.54,0,1.75,0,2.29.06.02.12-3.29,2.99-4.66,4.24-10.79,9.88-21.57,19.75-32.38,29.61-.79.72-1.12,1.46-1.11,2.53.05,4.45.02,8.9.02,13.35,0,1.55,0,1.56,1.56,1.56,5.6,0,183.51,0,187.86,0,2.34,0,4.68,0,7.01,0q1.72,0,1.72-1.74c0-11.67,0-23.34,0-35.01,0-.56.07-1.12.13-1.94.6.5,1.01.79,1.36,1.14,12.48,12.23,24.96,24.46,37.42,36.71.63.62,1.29.87,2.17.87,6.96-.03,37.92-.02,45.82,0,.92,0,1.38-.39,1.76-1.21,1.06-2.29,2.26-4.52,3.3-6.81.4-.89,1-1.06,1.85-1.05,2.93.02,24.98.02,33.08,0,1.02,0,1.63.31,2.07,1.31,1,2.23,2.23,4.36,3.19,6.61.44,1.03,1.06,1.17,1.99,1.16,7.82-.01,15.64,0,23.46-.01.42,0,.84-.04,1.45-.07-.15-.43-.2-.65-.3-.85ZM531.96,45.8c-4.81.02-9.62.02-14.43,0-1.16,0-1.33-.38-.82-1.46,2.25-4.7,4.47-9.4,6.71-14.1.3-.63.86-1.79,1.29-2.63.38.61,5.6,11.74,8.02,16.91.48,1.02.31,1.27-.78,1.27Z"/>
      </g>
      <g>
        <path class="cls-3" d="M179.12,69.27c-.41-5.63-.28-11.32-1.6-16.87-.98-4.12-2.91-7.7-6.23-10.43-.77-.64-1.61-1.2-2.59-1.94,1.36-.89,2.63-1.63,3.79-2.51,3.86-2.9,6.1-6.79,6.34-11.6.12-2.5-.15-5.06-.57-7.54-1.11-6.58-5.22-10.69-11.33-12.92-4-1.46-8.21-2.02-12.43-2.04-18.93-.1-37.85-.07-56.78-.08-1.89,0-1.9,0-1.9,1.86,0,22.05,0,44.09,0,66.14-5.51-11.09-30.13-60.72-33.14-66.88-.38-.78-.84-1.13-1.69-1.12-8.29.01-16.58.01-24.87,0-.85,0-1.34.34-1.71,1.12-1.44,3.02-29.76,60.05-32.03,64.65-.78,1.58-1.54,3.17-2.38,4.88.54.05.88.12,1.22.12,7.9,0,15.8,0,23.69.02.92,0,1.38-.39,1.76-1.21,1.06-2.29,2.26-4.52,3.3-6.81.4-.89,1-1.06,1.85-1.05,2.93.02,24.98.02,33.08,0,1.02,0,1.63.31,2.07,1.31,1,2.23,2.23,4.36,3.19,6.61.44,1.03,1.06,1.17,1.99,1.16,7.82-.01,38.62,0,45.27,0q1.7,0,1.7-1.76c0-7.77,0-15.54,0-23.3,0-1.59.04-1.64,1.64-1.64,5.36,0,10.72-.06,16.07.03,2.33.04,4.68.22,6.97.62,5.96,1.04,8.36,4.91,9.06,9.74.72,4.97.99,10.01,1.39,15.03.08,1.01.38,1.32,1.4,1.31,5.24-.05,10.48-.02,15.72-.02,2.31,0,4.61-.02,6.92,0,.89,0,1.29-.3,1.17-1.24-.15-1.2-.25-2.41-.33-3.61ZM55.65,45.8c-4.81.02-9.62.02-14.43,0-1.16,0-1.33-.38-.82-1.46,2.25-4.7,4.47-9.4,6.71-14.1.3-.63.86-1.79,1.29-2.63.38.61,5.6,11.74,8.02,16.91.48,1.02.31,1.27-.78,1.27ZM151.95,29.79c-.49.18-1.08.17-1.62.17-4.89.01-9.77,0-14.66,0-4.96,0-9.93,0-14.89,0-1.61,0-1.66-.06-1.67-1.62,0-1.76.02-3.51,0-5.27-.02-.98.37-1.42,1.38-1.42,10.01.02,20.01-.01,30.02.03,2.36.01,3.19,1.35,3.7,3.39.46,1.81-.72,4.14-2.26,4.71Z"/>
        <path class="cls-3" d="M207.64,3.34c-6.57,0-13.14,0-19.71,0-1.66,0-1.7.03-1.7,1.71,0,22.52,0,45.04-.02,67.56,0,1.17.31,1.55,1.52,1.54,6.73-.05,13.45-.02,20.18-.03,1.63,0,1.63,0,1.63-1.6,0-11.24,0-56.13,0-67.33,0-1.85,0-1.85-1.89-1.85Z"/>
        <path class="cls-4" d="M314.06,34.2c1.39,0,2.74.39,3.92,1.12l.13.08.76.53c3.21-7.45,10.59-12.68,19.21-12.68,11.57,0,20.95,9.38,20.95,20.95,0,3.41-.82,6.63-2.28,9.48l7.4-2.74c.77-.28,1.58-.43,2.4-.43,1.32,0,2.61.38,3.72,1.09l9.29,5.95c.18.11.36.21.54.32,1.4-4.3,2.17-8.89,2.17-13.67,0-24.42-19.79-44.21-44.21-44.21s-44.21,19.79-44.21,44.21c0,.79.03,1.57.07,2.34l15.9-11.03c1.24-.86,2.7-1.32,4.22-1.32Z"/>
        <path class="cls-3" d="M573.05,73.2c-2.46-4.94-30.82-62.1-34.06-68.74-.38-.78-.84-1.13-1.69-1.12-8.29.01-16.58.01-24.87,0-.85,0-1.34.34-1.71,1.12-1.44,3.02-29.76,60.05-32.03,64.65-.35.71-.69,1.42-1.04,2.14-.02-22.15-.03-44.31,0-66.46,0-1.09-.32-1.49-1.47-1.48-6.53.05-13.06.02-19.59.02q-2.34,0-2.34,2.29c0,11.51,0,23.03,0,34.54v1.61l-.4.27c-.49-.38-1.02-.71-1.46-1.14-12.35-12.19-24.69-24.38-37.01-36.59-.73-.72-1.48-1-2.5-1-6.73.03-13.45.02-20.18.02-1.65,0-1.67.02-1.67,1.73,0,18.81,0,37.61-.02,56.42,0,1.99,0,3.98,0,5.96h0s-7.92-2.13-7.92-2.13c-2.34-.63-4.57-1.61-6.61-2.92l-9.29-5.95c-.3-.19-.68-.23-1.02-.11l-15.44,5.71c-.31.12-.66.08-.95-.1l-8.01-3.79c-2.4-1.14-4.7-2.47-6.87-3.99l-6.83-4.78-2.14-1.5-11.01-7.71c-.56-.35-1.26-.33-1.8.04l-20.67,14.34c-.24.17-1.59-.07-3.34-1.07-2.88-1.65-6.62-3.12-7.39-3.36-1.25-.38-2.93-.32-6.63,1.49-3.69,1.8-11.66,3.07-11.71,3.08-2.35,0-4.7,0-7.04,0h-.77c-.43,0-.87.03-1.29-.04-.24-.04-.57-.18-.65-.36-.06-.15.13-.48.3-.65.33-.33.66-.64,1-.96.59-.58,1.18-1.15,1.78-1.72.44-.42.89-.83,1.33-1.25,10.3-9.68,20.59-19.37,30.9-29.03.77-.72,1.12-1.47,1.11-2.54-.05-4.33-.02-8.66-.02-13,0-1.85,0-1.85-1.92-1.85-22.72,0-45.44,0-68.15,0-1.71,0-1.8.08-1.8,1.76,0,5.23,0,10.46,0,15.69,0,1.97,0,1.97,1.93,1.97,10.64,0,21.27,0,31.91,0,.54,0,1.75,0,2.29.06.02.12-3.29,2.99-4.66,4.24-10.79,9.88-21.57,19.75-32.38,29.61-.79.72-1.12,1.46-1.11,2.53.05,4.45.02,8.9.02,13.35,0,1.55,0,1.56,1.56,1.56,5.6,0,183.51,0,187.86,0,2.34,0,4.68,0,7.01,0q1.72,0,1.72-1.74c0-11.67,0-23.34,0-35.01,0-.56.07-1.12.13-1.94.6.5,1.01.79,1.36,1.14,12.48,12.23,24.96,24.46,37.42,36.71.63.62,1.29.87,2.17.87,6.96-.03,37.92-.02,45.82,0,.92,0,1.38-.39,1.76-1.21,1.06-2.29,2.26-4.52,3.3-6.81.4-.89,1-1.06,1.85-1.05,2.93.02,24.98.02,33.08,0,1.02,0,1.63.31,2.07,1.31,1,2.23,2.23,4.36,3.19,6.61.44,1.03,1.06,1.17,1.99,1.16,7.82-.01,15.64,0,23.46-.01.42,0,.84-.04,1.45-.07-.15-.43-.2-.65-.3-.85ZM531.96,45.8c-4.81.02-9.62.02-14.43,0-1.16,0-1.33-.38-.82-1.46,2.25-4.7,4.47-9.4,6.71-14.1.3-.63.86-1.79,1.29-2.63.38.61,5.6,11.74,8.02,16.91.48,1.02.31,1.27-.78,1.27Z"/>
      </g>
    </g>
    <g class="cls-5">
      <g>
        <g>
          <g>
            <g>
              <g>
                <g>
                  <g>
                    <g>
                      <rect class="cls-2" x="337.59" y="54.64" width=".93" height="6.75"/>
                      <rect class="cls-2" x="337.59" y="63.39" width=".93" height="2.74"/>
                    </g>
                    <g>
                      <rect class="cls-2" x="337.59" y="27.06" width=".93" height="6.75"/>
                      <rect class="cls-2" x="337.59" y="22.31" width=".93" height="2.74"/>
                    </g>
                  </g>
                  <g>
                    <g>
                      <rect class="cls-2" x="320.89" y="43.76" width="6.75" height=".93"/>
                      <rect class="cls-2" x="316.14" y="43.76" width="2.74" height=".93"/>
                    </g>
                    <g>
                      <rect class="cls-2" x="348.47" y="43.76" width="6.75" height=".93"/>
                      <rect class="cls-2" x="357.22" y="43.76" width="2.74" height=".93"/>
                    </g>
                  </g>
                </g>
                <g>
                  <g>
                    <g>
                      <rect class="cls-2" x="347.34" y="50.6" width=".93" height="6.75" transform="translate(63.7 261.74) rotate(-45)"/>
                      <rect class="cls-2" x="352.11" y="57.37" width=".93" height="2.74" transform="translate(61.73 266.51) rotate(-45)"/>
                    </g>
                    <g>
                      <rect class="cls-2" x="327.83" y="31.1" width=".93" height="6.75" transform="translate(71.78 242.24) rotate(-45)"/>
                      <rect class="cls-2" x="323.06" y="28.33" width=".93" height="2.74" transform="translate(73.76 237.47) rotate(-45)"/>
                    </g>
                  </g>
                  <g>
                    <g>
                      <rect class="cls-2" x="324.92" y="53.51" width="6.75" height=".93" transform="translate(57.99 247.95) rotate(-45)"/>
                      <rect class="cls-2" x="322.16" y="58.28" width="2.74" height=".93" transform="translate(53.22 245.97) rotate(-45)"/>
                    </g>
                    <g>
                      <rect class="cls-2" x="344.43" y="34.01" width="6.75" height=".93" transform="translate(77.52 256.05) rotate(-45.01)"/>
                      <rect class="cls-2" x="351.2" y="29.23" width="2.74" height=".93" transform="translate(82.27 258) rotate(-45)"/>
                    </g>
                  </g>
                </g>
              </g>
              <g>
                <g>
                  <g>
                    <g>
                      <circle class="cls-2" cx="331.86" cy="29.29" r=".6"/>
                      <g>
                        <rect class="cls-2" x="329.75" y="23.87" width=".93" height="2.86" transform="translate(15.45 128.29) rotate(-22.5)"/>
                        <rect class="cls-2" x="333.05" y="31.85" width=".93" height="2.86" transform="translate(12.65 130.16) rotate(-22.5)"/>
                      </g>
                    </g>
                    <g>
                      <circle class="cls-2" cx="344.23" cy="59.15" r=".6"/>
                      <g>
                        <rect class="cls-2" x="342.12" y="53.74" width=".93" height="2.86" transform="translate(4.97 135.3) rotate(-22.5)"/>
                        <rect class="cls-2" x="345.42" y="61.71" width=".93" height="2.86" transform="translate(2.16 137.16) rotate(-22.5)"/>
                      </g>
                    </g>
                  </g>
                  <g>
                    <g>
                      <circle class="cls-2" cx="352.98" cy="38.03" r=".6"/>
                      <g>
                        <rect class="cls-2" x="355.54" y="35.92" width="2.86" height=".93" transform="translate(13.25 139.37) rotate(-22.5)"/>
                        <rect class="cls-2" x="347.56" y="39.22" width="2.86" height=".93" transform="translate(11.38 136.57) rotate(-22.5)"/>
                      </g>
                    </g>
                    <g>
                      <circle class="cls-2" cx="323.12" cy="50.4" r=".6"/>
                      <g>
                        <rect class="cls-2" x="325.68" y="48.29" width="2.86" height=".93" transform="translate(6.25 128.9) rotate(-22.5)"/>
                        <rect class="cls-2" x="317.7" y="51.59" width="2.86" height=".93" transform="translate(4.37 126.1) rotate(-22.5)"/>
                      </g>
                    </g>
                  </g>
                </g>
                <g>
                  <g>
                    <g>
                      <circle class="cls-2" cx="323.12" cy="38.03" r=".6"/>
                      <g>
                        <rect class="cls-2" x="318.67" y="34.95" width=".93" height="2.86" transform="translate(163.39 317.3) rotate(-67.5)"/>
                        <rect class="cls-2" x="326.64" y="38.26" width=".93" height="2.86" transform="translate(165.26 326.7) rotate(-67.5)"/>
                      </g>
                    </g>
                    <g>
                      <circle class="cls-2" cx="352.98" cy="50.4" r=".6"/>
                      <g>
                        <rect class="cls-2" x="348.53" y="47.32" width=".93" height="2.86" transform="translate(170.39 352.52) rotate(-67.5)"/>
                        <rect class="cls-2" x="356.51" y="50.63" width=".93" height="2.86" transform="translate(172.26 361.92) rotate(-67.5)"/>
                      </g>
                    </g>
                  </g>
                  <g>
                    <g>
                      <circle class="cls-2" cx="344.23" cy="29.29" r=".6"/>
                      <g>
                        <rect class="cls-2" x="344.46" y="24.84" width="2.86" height=".93" transform="translate(190.13 335.17) rotate(-67.5)"/>
                        <rect class="cls-2" x="341.15" y="32.81" width="2.86" height=".93" transform="translate(180.72 337.04) rotate(-67.5)"/>
                      </g>
                    </g>
                    <g>
                      <circle class="cls-2" cx="331.86" cy="59.15" r=".6"/>
                      <g>
                        <rect class="cls-2" x="332.09" y="54.7" width="2.86" height=".93" transform="translate(154.9 342.17) rotate(-67.5)"/>
                        <rect class="cls-2" x="328.78" y="62.68" width="2.86" height=".93" transform="translate(145.5 344.04) rotate(-67.5)"/>
                      </g>
                    </g>
                  </g>
                </g>
              </g>
            </g>
            <g>
              <g>
                <g>
                  <g>
                    <polygon class="cls-2" points="336.21 26.44 334.82 25.06 336.21 23.67 336.21 26.44"/>
                    <polygon class="cls-2" points="336.21 28.86 334.82 27.48 336.21 26.09 336.21 28.86"/>
                    <polygon class="cls-2" points="336.21 31.28 334.82 29.9 336.21 28.51 336.21 31.28"/>
                  </g>
                  <g>
                    <polygon class="cls-2" points="339.89 59.93 341.28 58.54 339.89 57.15 339.89 59.93"/>
                    <polygon class="cls-2" points="339.89 62.35 341.28 60.96 339.89 59.58 339.89 62.35"/>
                    <polygon class="cls-2" points="339.89 64.77 341.28 63.38 339.89 62 339.89 64.77"/>
                  </g>
                </g>
                <g>
                  <g>
                    <polygon class="cls-2" points="320.27 46.06 318.88 47.45 317.5 46.06 320.27 46.06"/>
                    <polygon class="cls-2" points="322.69 46.06 321.3 47.45 319.92 46.06 322.69 46.06"/>
                    <polygon class="cls-2" points="325.11 46.06 323.73 47.45 322.34 46.06 325.11 46.06"/>
                  </g>
                  <g>
                    <polygon class="cls-2" points="353.76 42.38 352.37 40.99 350.98 42.38 353.76 42.38"/>
                    <polygon class="cls-2" points="356.18 42.38 354.79 40.99 353.4 42.38 356.18 42.38"/>
                    <polygon class="cls-2" points="358.6 42.38 357.21 40.99 355.82 42.38 358.6 42.38"/>
                  </g>
                </g>
              </g>
              <g>
                <g>
                  <g>
                    <polygon class="cls-2" points="324.18 32.95 322.21 32.95 322.21 30.99 324.18 32.95"/>
                    <polygon class="cls-2" points="325.89 34.66 323.93 34.66 323.93 32.7 325.89 34.66"/>
                    <polygon class="cls-2" points="327.6 36.38 325.64 36.38 325.64 34.41 327.6 36.38"/>
                  </g>
                  <g>
                    <polygon class="cls-2" points="350.46 54.03 350.46 52.06 348.5 52.06 350.46 54.03"/>
                    <polygon class="cls-2" points="352.17 55.74 352.17 53.78 350.21 53.78 352.17 55.74"/>
                    <polygon class="cls-2" points="353.88 57.45 353.88 55.49 351.92 55.49 353.88 57.45"/>
                  </g>
                </g>
                <g>
                  <g>
                    <polygon class="cls-2" points="326.78 58.09 326.78 60.05 324.82 60.05 326.78 58.09"/>
                    <polygon class="cls-2" points="328.49 56.38 328.49 58.34 326.53 58.34 328.49 56.38"/>
                    <polygon class="cls-2" points="330.2 54.67 330.2 56.63 328.24 56.63 330.2 54.67"/>
                  </g>
                  <g>
                    <polygon class="cls-2" points="347.86 31.81 345.89 31.81 345.89 33.77 347.86 31.81"/>
                    <polygon class="cls-2" points="349.57 30.1 347.6 30.1 347.6 32.06 349.57 30.1"/>
                    <polygon class="cls-2" points="351.28 28.38 349.32 28.38 349.32 30.35 351.28 28.38"/>
                  </g>
                </g>
              </g>
            </g>
            <g>
              <g>
                <g>
                  <g>
                    <polygon class="cls-2" points="329.55 28.5 327.73 27.75 328.48 25.94 329.55 28.5"/>
                    <polygon class="cls-2" points="330.47 30.74 328.66 29.99 329.41 28.17 330.47 30.74"/>
                    <polygon class="cls-2" points="331.4 32.97 329.58 32.22 330.33 30.41 331.4 32.97"/>
                  </g>
                  <g>
                    <polygon class="cls-2" points="345.76 58.03 346.51 56.22 344.7 55.47 345.76 58.03"/>
                    <polygon class="cls-2" points="346.69 60.27 347.44 58.45 345.63 57.7 346.69 60.27"/>
                    <polygon class="cls-2" points="347.61 62.5 348.37 60.69 346.55 59.94 347.61 62.5"/>
                  </g>
                </g>
                <g>
                  <g>
                    <polygon class="cls-2" points="322.33 52.72 321.58 54.54 319.76 53.79 322.33 52.72"/>
                    <polygon class="cls-2" points="324.57 51.8 323.82 53.61 322 52.86 324.57 51.8"/>
                    <polygon class="cls-2" points="326.8 50.87 326.05 52.69 324.24 51.93 326.8 50.87"/>
                  </g>
                  <g>
                    <polygon class="cls-2" points="351.86 36.51 350.05 35.75 349.29 37.57 351.86 36.51"/>
                    <polygon class="cls-2" points="354.1 35.58 352.28 34.83 351.53 36.64 354.1 35.58"/>
                    <polygon class="cls-2" points="356.33 34.65 354.52 33.9 353.77 35.72 356.33 34.65"/>
                  </g>
                </g>
              </g>
              <g>
                <g>
                  <g>
                    <polygon class="cls-2" points="320.92 39.12 319.11 39.87 318.36 38.06 320.92 39.12"/>
                    <polygon class="cls-2" points="323.16 40.04 321.34 40.8 320.59 38.98 323.16 40.04"/>
                    <polygon class="cls-2" points="325.39 40.97 323.58 41.72 322.83 39.91 325.39 40.97"/>
                  </g>
                  <g>
                    <polygon class="cls-2" points="353.27 48.53 352.52 46.72 350.7 47.47 353.27 48.53"/>
                    <polygon class="cls-2" points="355.51 49.46 354.75 47.64 352.94 48.4 355.51 49.46"/>
                    <polygon class="cls-2" points="357.74 50.38 356.99 48.57 355.18 49.32 357.74 50.38"/>
                  </g>
                </g>
                <g>
                  <g>
                    <polygon class="cls-2" points="332.95 61.35 333.7 63.16 331.88 63.91 332.95 61.35"/>
                    <polygon class="cls-2" points="333.87 59.11 334.62 60.93 332.81 61.68 333.87 59.11"/>
                    <polygon class="cls-2" points="334.8 56.87 335.55 58.69 333.74 59.44 334.8 56.87"/>
                  </g>
                  <g>
                    <polygon class="cls-2" points="342.36 29 340.55 29.75 341.3 31.56 342.36 29"/>
                    <polygon class="cls-2" points="343.29 26.76 341.47 27.51 342.22 29.33 343.29 26.76"/>
                    <polygon class="cls-2" points="344.21 24.53 342.4 25.28 343.15 27.09 344.21 24.53"/>
                  </g>
                </g>
              </g>
            </g>
          </g>
          <g>
            <path class="cls-2" d="M339.81,18.1v-.12c-.01-.12-.03-.23-.06-.33-.02-.07-.05-.13-.09-.18-.07-.08-.16-.13-.26-.13-.1,0-.19.03-.27.11-.04.04-.08.1-.11.16-.04.09-.06.18-.08.24-.03.14-.06.43-.07.61,0,.13-.04.25-.11.38-.04.09-.11.16-.2.22l-.03-.89c0-.17-.01-.59-.02-1,0-.4,0-.79-.01-.96l-.03-.92c0-.09,0-.2-.04-.32-.02-.08-.05-.17-.12-.26-.09-.12-.22-.17-.37-.14-.06,0-.11.03-.16.07-.08.07-.14.16-.17.27-.03.1-.03.2-.03.28l-.02.79c0,.15,0,.52-.01.9,0,.39,0,.79-.01.95v.38s-.02,0-.02,0c-.07-.03-.13-.07-.17-.11-.05-.04-.08-.09-.09-.14,0-.04-.02-.08-.02-.12,0-.12-.01-.24-.02-.35v-.38c-.02-.1-.02-.19-.03-.29,0-.11-.03-.21-.07-.3-.03-.08-.07-.13-.12-.18-.07-.07-.16-.11-.26-.1-.08,0-.15.02-.22.07-.05.04-.08.08-.11.13-.02.04-.04.08-.06.13-.04.11-.06.22-.06.35v.17c-.01.07-.01.13-.01.25,0,.15,0,.31.01.47.01.11.03.24.07.37.08.26.23.49.45.69.1.09.21.15.34.17.06.01.13.02.2.03l.16.03.02.45c0,.14.01.28.02.43,0,.15,0,.62,0,.86,0,.09,0,.14,0,.15v.12h1.01v-.18c-.02-.17-.03-.54-.02-.63l.02-.24c.05-.02.11-.03.16-.05.2-.07.36-.16.49-.3.28-.29.46-.64.54-1.02.02-.1.04-.23.05-.36v-.07c0-.09,0-.09,0-.14Z"/>
            <path class="cls-2" d="M336.29,70.34v.12c.01.12.03.23.06.33.02.07.05.13.09.18.07.08.16.13.26.13.1,0,.19-.03.27-.11.04-.04.08-.1.11-.16.04-.09.06-.18.08-.24.03-.14.06-.43.07-.61,0-.13.04-.25.11-.38.04-.09.11-.16.2-.22l.03.89c0,.17.01.59.02,1,0,.4,0,.79.01.96l.03.92c0,.09,0,.2.04.32.02.08.05.17.12.26.09.12.22.17.37.14.06,0,.11-.03.16-.07.08-.07.14-.16.17-.27.03-.1.03-.2.03-.28l.02-.79c0-.15,0-.52.01-.9,0-.39,0-.79.01-.95v-.38s.02,0,.02,0c.07.03.13.07.17.11.05.04.08.09.09.14,0,.04.02.08.02.12,0,.12.01.24.02.35v.38c.02.1.02.19.03.29,0,.11.03.21.07.3.03.08.07.13.12.18.07.07.16.11.26.1.08,0,.15-.02.22-.07.05-.04.08-.08.11-.13.02-.04.04-.08.06-.13.04-.11.06-.22.06-.35v-.17c.01-.07.01-.13.01-.25,0-.15,0-.31-.01-.47-.01-.11-.03-.24-.07-.37-.08-.26-.23-.49-.45-.69-.1-.09-.21-.15-.34-.17-.06-.01-.13-.02-.2-.03l-.16-.03-.02-.45c0-.14-.01-.28-.02-.43,0-.15,0-.62,0-.86,0-.09,0-.14,0-.15v-.12h-1.01v.18c.02.17.03.54.02.63l-.02.24c-.05.02-.11.03-.16.05-.2.07-.36.16-.49.3-.28.29-.46.64-.54,1.02-.02.1-.04.23-.05.36v.07c0,.09,0,.09,0,.14Z"/>
          </g>
          <g>
            <path class="cls-2" d="M364.17,45.98h.12c.12-.01.23-.03.33-.06.07-.02.13-.05.18-.09.08-.07.13-.16.13-.26,0-.1-.03-.19-.11-.27-.04-.04-.1-.08-.16-.11-.09-.04-.18-.06-.24-.08-.14-.03-.43-.06-.61-.07-.13,0-.25-.04-.38-.11-.09-.04-.16-.11-.22-.2l.89-.03c.17,0,.59-.01,1-.02.4,0,.79,0,.96-.01l.92-.03c.09,0,.2,0,.32-.04.08-.02.17-.05.26-.12.12-.09.17-.22.14-.37,0-.06-.03-.11-.07-.16-.07-.08-.16-.14-.27-.17-.1-.03-.2-.03-.28-.03l-.79-.02c-.15,0-.52,0-.9-.01-.39,0-.79,0-.95-.01h-.38s0-.02,0-.02c.03-.07.07-.13.11-.17.04-.05.09-.08.14-.09.04,0,.08-.02.12-.02.12,0,.24-.01.35-.02h.38c.1-.02.19-.02.29-.03.11,0,.21-.03.3-.07.08-.03.13-.07.18-.12.07-.07.11-.16.1-.26,0-.08-.02-.15-.07-.22-.04-.05-.08-.08-.13-.11-.04-.02-.08-.04-.13-.06-.11-.04-.22-.06-.35-.06h-.17c-.07-.01-.13-.01-.25-.01-.15,0-.31,0-.47.01-.11.01-.24.03-.37.07-.26.08-.49.23-.69.45-.09.1-.15.21-.17.34-.01.06-.02.13-.03.2l-.03.16-.45.02c-.14,0-.28.01-.43.02-.15,0-.62,0-.86,0-.09,0-.14,0-.15,0h-.12s0,1.01,0,1.01h.18c.17-.02.54-.03.63-.02l.24.02c.02.05.03.11.05.16.07.2.16.36.3.49.29.28.64.46,1.02.54.1.02.23.04.36.05h.07c.09,0,.09,0,.14,0Z"/>
            <path class="cls-2" d="M311.92,42.46h-.12c-.12.01-.23.03-.33.06-.07.02-.13.05-.18.09-.08.07-.13.16-.13.26,0,.1.03.19.11.27.04.04.1.08.16.11.09.04.18.06.24.08.14.03.43.06.61.07.13,0,.25.04.38.11.09.04.16.11.22.2l-.89.03c-.17,0-.59.01-1,.02-.4,0-.79,0-.96.01l-.92.03c-.09,0-.2,0-.32.04-.08.02-.17.05-.26.12-.12.09-.17.22-.14.37,0,.06.03.11.07.16.07.08.16.14.27.17.1.03.2.03.28.03l.79.02c.15,0,.52,0,.9.01.39,0,.79,0,.95.01h.38s0,.02,0,.02c-.03.07-.07.13-.11.17-.04.05-.09.08-.14.09-.04,0-.08.02-.12.02-.12,0-.24.01-.35.02h-.38c-.1.02-.19.02-.29.03-.11,0-.21.03-.3.07-.08.03-.13.07-.18.12-.07.07-.11.16-.1.26,0,.08.02.15.07.22.04.05.08.08.13.11.04.02.08.04.13.06.11.04.22.06.35.06h.17c.07.01.13.01.25.01.15,0,.31,0,.47-.01.11-.01.24-.03.37-.07.26-.08.49-.23.69-.45.09-.1.15-.21.17-.34.01-.06.02-.13.03-.2l.03-.16.45-.02c.14,0,.28-.01.43-.02.15,0,.62,0,.86,0,.09,0,.14,0,.15,0h.12s0-1.01,0-1.01h-.18c-.17.02-.54.03-.63.02l-.24-.02c-.02-.05-.03-.11-.05-.16-.07-.2-.16-.36-.3-.49-.29-.28-.64-.46-1.02-.54-.1-.02-.23-.04-.36-.05h-.07c-.09,0-.09,0-.14,0Z"/>
          </g>
          <g>
            <path class="cls-2" d="M320.75,25.63c.38-.17.44-.84.35-1.07-.36.32-.68.57-.91.52,0,0,0-.01,0-.02,0,0,.38-.47.32-.75-.36.44-1.03.45-1.02.45.39-.13.57-.72.61-.98-.53.45-1.29.34-1.28.33,0,0,.15-.11.21-.33-.36.24-.72.09-.71.09.13-.04.23-.28.25-.38-.59.15-1.45-.25-1.54-.3,0,0,0,0,0,0,.05.1.46.95.32,1.54.11-.02.34-.12.38-.25,0,0,.16.35-.08.71.21-.07.33-.22.33-.22,0,0,.13.76-.31,1.29.25-.04.84-.23.97-.62,0,0,0,.66-.44,1.03.28.06.75-.33.75-.33,0,0,.01,0,.02,0,.05.23-.19.55-.51.92.23.09.9.02,1.06-.36,0,0,.19.51-.44,1.36,1.44-.45,1.33-1.34,1.33-1.34,0,0,.61.57,1.17,1.16l.38-.39c-.6-.56-1.18-1.16-1.18-1.16,0,0,.9.1,1.33-1.35-.84.64-1.36.46-1.35.45Z"/>
            <path class="cls-2" d="M356.65,61.51c.17-.38.84-.44,1.07-.35-.32.36-.57.68-.52.91,0,0,.01,0,.02,0,0,0,.47-.38.75-.32-.44.36-.45,1.03-.45,1.02.13-.39.72-.57.98-.61-.45.53-.34,1.29-.33,1.28,0,0,.11-.15.33-.21-.24.36-.09.72-.09.71.04-.13.28-.23.38-.25-.15.59.25,1.45.3,1.54,0,0,0,0,0,0-.1-.05-.95-.46-1.54-.32.02-.11.12-.34.25-.38,0,0-.35-.16-.71.08.07-.21.22-.33.22-.33,0,0-.76-.13-1.29.31.04-.25.23-.84.62-.97,0,0-.66,0-1.03.44-.06-.28.33-.75.33-.75,0,0,0-.01,0-.02-.23-.05-.55.19-.92.51-.09-.23-.02-.9.36-1.06,0,0-.51-.19-1.36.44.45-1.44,1.34-1.33,1.34-1.33,0,0-.57-.61-1.16-1.17l.39-.38c.56.6,1.16,1.18,1.16,1.18,0,0-.1-.9,1.35-1.33-.64.84-.46,1.36-.45,1.35Z"/>
          </g>
          <g>
            <path class="cls-2" d="M356.64,26.92c.17.38.84.44,1.07.35-.32-.36-.57-.68-.52-.91,0,0,.01,0,.02,0,0,0,.47.38.75.32-.44-.36-.45-1.03-.45-1.02.13.39.72.57.98.61-.45-.53-.34-1.29-.33-1.28,0,0,.11.15.33.21-.24-.36-.09-.72-.09-.71.04.13.28.23.38.25-.15-.59.25-1.45.3-1.54,0,0,0,0,0,0-.1.05-.95.46-1.54.32.02.11.12.34.25.38,0,0-.35.16-.71-.08.07.21.22.33.22.33,0,0-.76.13-1.29-.31.04.25.23.84.62.97,0,0-.66,0-1.03-.44-.06.28.33.75.33.75,0,0,0,.01,0,.02-.23.05-.55-.19-.92-.51-.09.23-.02.9.36,1.06,0,0-.51.19-1.36-.44.45,1.44,1.34,1.33,1.34,1.33,0,0-.57.61-1.16,1.17l.39.38c.56-.6,1.16-1.18,1.16-1.18,0,0-.1.9,1.35,1.33-.64-.84-.46-1.36-.45-1.35Z"/>
            <path class="cls-2" d="M320.76,62.82c.38.17.44.84.35,1.07-.36-.32-.68-.57-.91-.52,0,0,0,.01,0,.02,0,0,.38.47.32.75-.36-.44-1.03-.45-1.02-.45.39.13.57.72.61.98-.53-.45-1.29-.34-1.28-.33,0,0,.15.11.21.33-.36-.24-.72-.09-.71-.09.13.04.23.28.25.38-.59-.15-1.45.25-1.54.3,0,0,0,0,0,0,.05-.1.46-.95.32-1.54.11.02.34.12.38.25,0,0,.16-.35-.08-.71.21.07.33.22.33.22,0,0,.13-.76-.31-1.29.25.04.84.23.97.62,0,0,0-.66-.44-1.03.28-.06.75.33.75.33,0,0,.01,0,.02,0,.05-.23-.19-.55-.51-.92.23-.09.9-.02,1.06.36,0,0,.19-.51-.44-1.36,1.44.45,1.33,1.34,1.33,1.34,0,0,.61-.57,1.17-1.16l.38.39c-.6.56-1.18,1.16-1.18,1.16,0,0,.9-.1,1.33,1.35-.84-.64-1.36-.46-1.35-.45Z"/>
          </g>
          <g>
            <g>
              <g>
                <path class="cls-2" d="M316.29,33.7s-.05-.07-.02-.1c.33-.34.52-.79.55-1.25,0-.03-.02-.05-.04-.06-.44-.15-.92-.15-1.37.03-.04.02-.08-.01-.08-.05,0-.48-.19-.93-.49-1.27-.02-.02-.05-.03-.07-.01-.42.2-.76.55-.94.99-.02.04-.07.05-.1.02-.34-.33-.79-.52-1.25-.55-.03,0-.05.02-.06.04-.15.44-.15.92.03,1.37.02.04-.01.08-.05.08-.48,0-.93.19-1.27.49-.02.02-.03.05-.01.07.2.42.55.76.99.94.04.02.05.07.02.1-.33.34-.52.79-.55,1.25,0,.03.02.05.04.06.44.15.92.15,1.37-.03.04-.02.08.01.08.05,0,.48.19.93.49,1.27.02.02.05.03.07.01.42-.2.76-.55.94-.99.02-.04.07-.05.1-.02.34.33.79.52,1.25.55.03,0,.05-.02.06-.04.15-.44.15-.92-.03-1.37-.02-.04.01-.08.05-.08.48,0,.93-.19,1.27-.49.02-.02.03-.05.01-.07-.2-.42-.55-.76-.99-.94ZM314.34,34.8c-.4.08-.8-.18-.88-.59s.18-.8.59-.88.8.18.88.59-.18.8-.59.88Z"/>
                <path class="cls-2" d="M359.81,33.7s.05-.07.02-.1c-.33-.34-.52-.79-.55-1.25,0-.03.02-.05.04-.06.44-.15.92-.15,1.37.03.04.02.08-.01.08-.05,0-.48.19-.93.49-1.27.02-.02.05-.03.07-.01.42.2.76.55.94.99.02.04.07.05.1.02.34-.33.79-.52,1.25-.55.03,0,.05.02.06.04.15.44.15.92-.03,1.37-.02.04.01.08.05.08.48,0,.93.19,1.27.49.02.02.03.05.01.07-.2.42-.55.76-.99.94-.04.02-.05.07-.02.1.33.34.52.79.55,1.25,0,.03-.02.05-.04.06-.44.15-.92.15-1.37-.03-.04-.02-.08.01-.08.05,0,.48-.19.93-.49,1.27-.02.02-.05.03-.07.01-.42-.2-.76-.55-.94-.99-.02-.04-.07-.05-.1-.02-.34.33-.79.52-1.25.55-.03,0-.05-.02-.06-.04-.15-.44-.15-.92.03-1.37.02-.04-.01-.08-.05-.08-.48,0-.93-.19-1.27-.49-.02-.02-.03-.05-.01-.07.2-.42.55-.76.99-.94ZM361.76,34.8c.4.08.8-.18.88-.59s-.18-.8-.59-.88-.8.18-.88.59.18.8.59.88Z"/>
              </g>
              <g>
                <path class="cls-2" d="M350.55,20.38c-.13-.3-.31-.57-.49-.85-.12-.18.02-.84.04-.98.11-.26-.75.04-1.13.11,0,0-2.7-.74-3.38.57.69.58.62.57.62.57,0,0-.26.11-.43.26-.05.04.72.25,1.89.32,1.73.1,2.25,2.7,1.91,3.04-.34.35-.72.64-1.12.92.18-.09.38-.18.61-.24.46-.14.9-.16,1.2-.08.04-.04.08-.09.1-.13.11-.25-.07-.33-.04-.61.01-.09.13-.43.18-.5.44-.79.4-1.59.05-2.39ZM346.61,19.31c-.1,0-.18-.08-.18-.18s.08-.18.18-.18.18.08.18.18-.08.18-.18.18Z"/>
                <g>
                  <path class="cls-2" d="M327.59,20.25s0,.05,0,.08c-.34-.08-.8-.1-1.33-.08-.09,0-.18.01-.26.02-.24-.16-.47-.31-.7-.47-.01,0-.03-.02-.04-.03.18-.06.54-.07.98-.03.44.04.92.12,1.36.23,0,.07,0,.13,0,.2v.08Z"/>
                  <path class="cls-2" d="M327.86,21.67l-.03.02c-.05.03-.11.06-.18.08-.25.07-.54,0-.78-.06-.93-.26-1.86-.55-2.76-.84-.02,0-.03-.01-.04-.01.56-.38,3.32-.76,3.96-.17l.02.02.05-.02v-.03s-.11-.24-.36-.3c0-.04,0-.07,0-.1v-.08c.02-.18.02-.36-.03-.55,0,0,0,0,0,0-.06-.3.1-.6.37-.73.03-.02.07-.03.11-.04.16-.06.35-.08.52-.07,0,0,0,0,0,0,0,0,.01,0,.01,0,0,0,.02-.02.03-.03.29-.23.89-.58,1.27-.65.02,0,.04,0,.04,0,0,.01-.1.07-.12.08-.3.18-.81.47-.99.74-.11.16-.12.34-.09.52.2,1.06.76,1.8-.11,2.92-.08.1-.17.21-.28.31-.24.24-.4.33-.58.64-.2.35-.34.8-.47,1.15,0,.02-.02.04-.02.06-.02.05-.07.16-.1.21v-.09s0,0,0,0c.02-.16.05-.35.08-.55.07-.4.14-.86.13-1.2-.02-.36-.02-.65,0-.91.11-.02.27-.1.33-.19.03-.05.02-.07.02-.08l-.02-.03Z"/>
                </g>
              </g>
            </g>
            <g>
              <g>
                <path class="cls-2" d="M359.81,54.74s.05.07.02.1c-.33.34-.52.79-.55,1.25,0,.03.02.05.04.06.44.15.92.15,1.37-.03.04-.02.08.01.08.05,0,.48.19.93.49,1.27.02.02.05.03.07.01.42-.2.76-.55.94-.99.02-.04.07-.05.1-.02.34.33.79.52,1.25.55.03,0,.05-.02.06-.04.15-.44.15-.92-.03-1.37-.02-.04.01-.08.05-.08.48,0,.93-.19,1.27-.49.02-.02.03-.05.01-.07-.2-.42-.55-.76-.99-.94-.04-.02-.05-.07-.02-.1.33-.34.52-.79.55-1.25,0-.03-.02-.05-.04-.06-.44-.15-.92-.15-1.37.03-.04.02-.08-.01-.08-.05,0-.48-.19-.93-.49-1.27-.02-.02-.05-.03-.07-.01-.42.2-.76.55-.94.99-.02.04-.07.05-.1.02-.34-.33-.79-.52-1.25-.55-.03,0-.05.02-.06.04-.15.44-.15.92.03,1.37.02.04-.01.08-.05.08-.48,0-.93.19-1.27.49-.02.02-.03.05-.01.07.2.42.55.76.99.94ZM361.76,53.64c.4-.08.8.18.88.59s-.18.8-.59.88-.8-.18-.88-.59.18-.8.59-.88Z"/>
                <path class="cls-2" d="M316.29,54.74s-.05.07-.02.1c.33.34.52.79.55,1.25,0,.03-.02.05-.04.06-.44.15-.92.15-1.37-.03-.04-.02-.08.01-.08.05,0,.48-.19.93-.49,1.27-.02.02-.05.03-.07.01-.42-.2-.76-.55-.94-.99-.02-.04-.07-.05-.1-.02-.34.33-.79.52-1.25.55-.03,0-.05-.02-.06-.04-.15-.44-.15-.92.03-1.37.02-.04-.01-.08-.05-.08-.48,0-.93-.19-1.27-.49-.02-.02-.03-.05-.01-.07.2-.42.55-.76.99-.94.04-.02.05-.07.02-.1-.33-.34-.52-.79-.55-1.25,0-.03.02-.05.04-.06.44-.15.92-.15,1.37.03.04.02.08-.01.08-.05,0-.48.19-.93.49-1.27.02-.02.05-.03.07-.01.42.2.76.55.94.99.02.04.07.05.1.02.34-.33.79-.52,1.25-.55.03,0,.05.02.06.04.15.44.15.92-.03,1.37-.02.04.01.08.05.08.48,0,.93.19,1.27.49.02.02.03.05.01.07-.2.42-.55.76-.99.94ZM314.34,53.64c-.4-.08-.8.18-.88.59s.18.8.59.88.8-.18.88-.59-.18-.8-.59-.88Z"/>
              </g>
              <g>
                <path class="cls-2" d="M325.54,68.06c.13.3.31.57.49.85.12.18-.02.84-.04.98-.11.26.75-.04,1.13-.11,0,0,2.7.74,3.38-.57-.69-.58-.62-.57-.62-.57,0,0,.26-.11.43-.26.05-.04-.72-.25-1.89-.32-1.73-.1-2.25-2.7-1.91-3.04.34-.35.72-.64,1.12-.92-.18.09-.38.18-.61.24-.46.14-.9.16-1.2.08-.04.04-.08.09-.1.13-.11.25.07.33.04.61-.01.09-.13.43-.18.5-.44.79-.4,1.59-.05,2.39ZM329.49,69.13c.1,0,.18.08.18.18s-.08.18-.18.18-.18-.08-.18-.18.08-.18.18-.18Z"/>
                <g>
                  <path class="cls-2" d="M348.51,68.19s0-.05,0-.08c.34.08.8.1,1.33.08.09,0,.18-.01.26-.02.24.16.47.31.7.47.01,0,.03.02.04.03-.18.06-.54.07-.98.03-.44-.04-.92-.12-1.36-.23,0-.07,0-.13,0-.2v-.08Z"/>
                  <path class="cls-2" d="M348.23,66.77l.03-.02c.05-.03.11-.06.18-.08.25-.07.54,0,.78.06.93.26,1.86.55,2.76.84.02,0,.03.01.04.01-.56.38-3.32.76-3.96.17l-.02-.02-.05.02v.03s.11.24.36.3c0,.04,0,.07,0,.1v.08c-.02.18-.02.36.03.55,0,0,0,0,0,0,.06.3-.1.6-.37.73-.03.02-.07.03-.11.04-.16.06-.35.08-.52.07,0,0,0,0,0,0,0,0-.01,0-.01,0,0,0-.02.02-.03.03-.29.23-.89.58-1.27.65-.02,0-.04,0-.04,0,0-.01.1-.07.12-.08.3-.18.81-.47.99-.74.11-.16.12-.34.09-.52-.2-1.06-.76-1.8.11-2.92.08-.1.17-.21.28-.31.24-.24.4-.33.58-.64.2-.35.34-.8.47-1.15,0-.02.02-.04.02-.06.02-.05.07-.16.1-.21v.09s0,0,0,0c-.02.16-.05.35-.08.55-.07.4-.14.86-.13,1.2.02.36.02.65,0,.91-.11.02-.27.1-.33.19-.03.05-.02.07-.02.08l.02.03Z"/>
                </g>
              </g>
            </g>
          </g>
          <g>
            <g>
              <g>
                <g>
                  <path class="cls-2" d="M313.47,25.01c-1.44-1.48-1.43-3.86.04-5.32,1.47-1.47,3.84-1.48,5.32-.04.08-.05.16-.11.23-.16h0c-1.59-1.59-4.17-1.59-5.75,0s-1.59,4.17,0,5.75h0c.05-.08.11-.16.16-.23Z"/>
                  <path class="cls-2" d="M313.74,19.91c-1.33,1.33-1.35,3.47-.07,4.82.06-.08.11-.15.17-.23-1.14-1.25-1.1-3.19.1-4.4,1.21-1.21,3.15-1.24,4.4-.1.08-.06.15-.11.23-.17-1.36-1.28-3.5-1.25-4.82.07Z"/>
                  <path class="cls-2" d="M314.17,20.34c-1.07,1.07-1.11,2.78-.13,3.9.06-.07.12-.15.17-.22-.85-1.01-.8-2.53.16-3.48.95-.95,2.47-1,3.48-.16.07-.06.15-.12.22-.17-1.12-.98-2.83-.93-3.9.13Z"/>
                  <path class="cls-2" d="M314.79,20.96c.7-.7,1.8-.76,2.57-.19.07-.06.15-.12.22-.18-.88-.7-2.17-.64-2.99.18-.81.81-.87,2.1-.18,2.99.06-.07.12-.15.18-.22-.57-.77-.51-1.87.19-2.57Z"/>
                </g>
                <g>
                  <path class="cls-2" d="M357.26,68.79c1.48,1.44,3.86,1.43,5.32-.04,1.47-1.47,1.48-3.84.04-5.32.05-.08.11-.16.16-.23h0c1.59,1.59,1.59,4.17,0,5.75s-4.17,1.59-5.75,0h0c.08-.05.16-.11.23-.16Z"/>
                  <path class="cls-2" d="M362.36,68.53c-1.33,1.33-3.47,1.35-4.82.07.08-.06.15-.11.23-.17,1.25,1.14,3.19,1.1,4.4-.1s1.24-3.15.1-4.4c.06-.08.11-.15.17-.23,1.28,1.36,1.25,3.5-.07,4.82Z"/>
                  <path class="cls-2" d="M361.93,68.1c-1.07,1.07-2.78,1.11-3.9.13.07-.06.15-.12.22-.17,1.01.85,2.53.8,3.48-.16.95-.95,1-2.47.16-3.48.06-.07.12-.15.17-.22.98,1.12.93,2.83-.13,3.9Z"/>
                  <path class="cls-2" d="M361.3,67.48c.7-.7.76-1.8.19-2.57.06-.07.12-.15.18-.22.7.88.64,2.17-.18,2.99s-2.1.87-2.99.18c.07-.06.15-.12.22-.18.77.57,1.87.51,2.57-.19Z"/>
                </g>
              </g>
              <g>
                <g>
                  <path class="cls-2" d="M318.83,68.79c-1.48,1.44-3.86,1.43-5.32-.04-1.47-1.47-1.48-3.84-.04-5.32-.05-.08-.11-.16-.16-.23h0c-1.59,1.59-1.59,4.17,0,5.75,1.59,1.59,4.17,1.59,5.75,0h0c-.08-.05-.16-.11-.23-.16Z"/>
                  <path class="cls-2" d="M313.74,68.53c1.33,1.33,3.47,1.35,4.82.07-.08-.06-.15-.11-.23-.17-1.25,1.14-3.19,1.1-4.4-.1s-1.24-3.15-.1-4.4c-.06-.08-.11-.15-.17-.23-1.28,1.36-1.25,3.5.07,4.82Z"/>
                  <path class="cls-2" d="M314.17,68.1c1.07,1.07,2.78,1.11,3.9.13-.07-.06-.15-.12-.22-.17-1.01.85-2.53.8-3.48-.16-.95-.95-1-2.47-.16-3.48-.06-.07-.12-.15-.17-.22-.98,1.12-.93,2.83.13,3.9Z"/>
                  <path class="cls-2" d="M314.79,67.48c-.7-.7-.76-1.8-.19-2.57-.06-.07-.12-.15-.18-.22-.7.88-.64,2.17.18,2.99s2.1.87,2.99.18c-.07-.06-.15-.12-.22-.18-.77.57-1.87.51-2.57-.19Z"/>
                </g>
                <g>
                  <path class="cls-2" d="M362.62,25.01c1.44-1.48,1.43-3.86-.04-5.32s-3.84-1.48-5.32-.04c-.08-.05-.16-.11-.23-.16h0c1.59-1.59,4.17-1.59,5.75,0s1.59,4.17,0,5.75h0c-.05-.08-.11-.16-.16-.23Z"/>
                  <path class="cls-2" d="M362.36,19.91c1.33,1.33,1.35,3.47.07,4.82-.06-.08-.11-.15-.17-.23,1.14-1.25,1.1-3.19-.1-4.4-1.21-1.21-3.15-1.24-4.4-.1-.08-.06-.15-.11-.23-.17,1.36-1.28,3.5-1.25,4.82.07Z"/>
                  <path class="cls-2" d="M361.93,20.34c1.07,1.07,1.11,2.78.13,3.9-.06-.07-.12-.15-.17-.22.85-1.01.8-2.53-.16-3.48s-2.47-1-3.48-.16c-.07-.06-.15-.12-.22-.17,1.12-.98,2.83-.93,3.9.13Z"/>
                  <path class="cls-2" d="M361.3,20.96c-.7-.7-1.8-.76-2.57-.19-.07-.06-.15-.12-.22-.18.88-.7,2.17-.64,2.99.18s.87,2.1.18,2.99c-.06-.07-.12-.15-.18-.22.57-.77.51-1.87-.19-2.57Z"/>
                </g>
              </g>
            </g>
            <g>
              <g>
                <g>
                  <path class="cls-2" d="M307.09,48.01c-2.07-.03-3.74-1.72-3.74-3.79,0-2.07,1.67-3.76,3.74-3.79.02-.09.03-.19.05-.28h0c-2.24,0-4.07,1.82-4.07,4.07s1.83,4.07,4.07,4.07h0c-.02-.09-.04-.19-.05-.28Z"/>
                  <path class="cls-2" d="M303.67,44.22c0,1.87,1.5,3.41,3.36,3.46-.01-.09-.03-.19-.04-.28-1.69-.08-3.04-1.48-3.04-3.18,0-1.71,1.35-3.1,3.04-3.18.01-.09.03-.19.04-.28-1.86.06-3.36,1.59-3.36,3.46Z"/>
                  <path class="cls-2" d="M304.28,44.22c0,1.51,1.18,2.75,2.66,2.85-.01-.09-.02-.19-.03-.28-1.32-.12-2.35-1.23-2.35-2.57,0-1.35,1.04-2.45,2.35-2.57.01-.09.02-.19.03-.28-1.49.1-2.66,1.34-2.66,2.85Z"/>
                  <path class="cls-2" d="M305.16,44.22c0-.99.73-1.81,1.68-1.96,0-.09.02-.19.03-.28-1.12.13-1.99,1.09-1.99,2.24,0,1.15.87,2.1,1.99,2.24,0-.09-.02-.19-.03-.28-.95-.14-1.68-.97-1.68-1.96Z"/>
                </g>
                <g>
                  <path class="cls-2" d="M369.01,48.01c2.07-.03,3.74-1.72,3.74-3.79,0-2.07-1.67-3.76-3.74-3.79-.02-.09-.03-.19-.05-.28h0c2.24,0,4.07,1.82,4.07,4.07s-1.83,4.07-4.07,4.07h0c.02-.09.04-.19.05-.28Z"/>
                  <path class="cls-2" d="M372.42,44.22c0,1.87-1.5,3.41-3.36,3.46.01-.09.03-.19.04-.28,1.69-.08,3.04-1.48,3.04-3.18,0-1.71-1.35-3.1-3.04-3.18-.01-.09-.03-.19-.04-.28,1.86.06,3.36,1.59,3.36,3.46Z"/>
                  <path class="cls-2" d="M371.82,44.22c0,1.51-1.18,2.75-2.66,2.85.01-.09.02-.19.03-.28,1.32-.12,2.35-1.23,2.35-2.57,0-1.35-1.04-2.45-2.35-2.57-.01-.09-.02-.19-.03-.28,1.49.1,2.66,1.34,2.66,2.85Z"/>
                  <path class="cls-2" d="M370.94,44.22c0-.99-.73-1.81-1.68-1.96,0-.09-.02-.19-.03-.28,1.12.13,1.99,1.09,1.99,2.24,0,1.15-.87,2.1-1.99,2.24,0-.09.02-.19.03-.28.95-.14,1.68-.97,1.68-1.96Z"/>
                </g>
              </g>
              <g>
                <path class="cls-2" d="M341.84,13.26c-.03-2.07-1.72-3.74-3.79-3.74-2.07,0-3.76,1.67-3.79,3.74-.09.02-.19.03-.28.05h0c0-2.24,1.83-4.07,4.07-4.07,2.24,0,4.07,1.83,4.07,4.07h0c-.09-.02-.19-.04-.28-.05Z"/>
                <path class="cls-2" d="M338.05,9.84c1.87,0,3.41,1.5,3.46,3.36-.09-.01-.19-.03-.28-.04-.08-1.69-1.48-3.04-3.18-3.04s-3.1,1.35-3.18,3.04c-.09.01-.19.03-.28.04.06-1.86,1.59-3.36,3.46-3.36Z"/>
                <path class="cls-2" d="M338.05,10.45c1.51,0,2.75,1.18,2.85,2.66-.09-.01-.19-.02-.28-.03-.12-1.32-1.23-2.35-2.57-2.35-1.35,0-2.45,1.04-2.57,2.35-.09.01-.19.02-.28.03.1-1.49,1.34-2.66,2.85-2.66Z"/>
                <path class="cls-2" d="M338.05,11.33c-.99,0-1.81.73-1.96,1.68-.09,0-.19.02-.28.03.13-1.12,1.09-1.99,2.24-1.99s2.1.87,2.24,1.99c-.09,0-.19-.02-.28-.03-.14-.95-.97-1.68-1.96-1.68Z"/>
              </g>
            </g>
          </g>
          <g>
            <g>
              <g>
                <g>
                  <path class="cls-2" d="M307.99,35.87c-1.9-.82-2.8-3.02-2-4.93s2.99-2.84,4.91-2.07c.05-.08.1-.16.15-.24h0c-2.07-.86-4.46.13-5.32,2.2s.13,4.46,2.2,5.32h0c.02-.09.04-.19.06-.28Z"/>
                  <path class="cls-2" d="M306.29,31.07c-.72,1.73.08,3.72,1.78,4.48.02-.09.04-.18.07-.27-1.53-.72-2.24-2.53-1.59-4.1s2.43-2.35,4.02-1.78c.05-.08.1-.16.15-.24-1.74-.66-3.71.18-4.43,1.91Z"/>
                  <path class="cls-2" d="M306.85,31.3c-.58,1.4.04,2.99,1.37,3.65.02-.09.05-.18.08-.27-1.17-.61-1.7-2.03-1.19-3.28.52-1.24,1.9-1.87,3.16-1.48.05-.08.09-.16.14-.25-1.41-.47-2.97.22-3.55,1.62Z"/>
                  <path class="cls-2" d="M307.66,31.63c.38-.91,1.37-1.39,2.3-1.16.04-.08.09-.17.13-.25-1.08-.3-2.25.24-2.69,1.31-.44,1.06,0,2.28.98,2.83.03-.09.06-.18.08-.27-.82-.5-1.18-1.54-.81-2.45Z"/>
                </g>
                <g>
                  <path class="cls-2" d="M365.2,59.57c1.92.76,4.11-.16,4.91-2.07.79-1.92-.11-4.12-2-4.93.02-.09.04-.18.06-.28h0c2.07.86,3.06,3.24,2.2,5.32-.86,2.07-3.24,3.06-5.32,2.2h0c.05-.08.1-.16.15-.24Z"/>
                  <path class="cls-2" d="M369.81,57.37c-.72,1.73-2.69,2.57-4.43,1.91.05-.08.1-.16.15-.24,1.59.57,3.37-.2,4.02-1.78s-.06-3.38-1.59-4.1c.02-.09.04-.18.07-.27,1.7.76,2.49,2.75,1.78,4.48Z"/>
                  <path class="cls-2" d="M369.25,57.14c-.58,1.4-2.14,2.09-3.55,1.62.05-.08.09-.16.14-.25,1.26.4,2.64-.23,3.16-1.48s-.02-2.66-1.19-3.28c.03-.09.05-.18.08-.27,1.33.66,1.95,2.26,1.37,3.65Z"/>
                  <path class="cls-2" d="M368.43,56.81c.38-.91.02-1.95-.81-2.45.03-.09.06-.18.08-.27.98.55,1.42,1.76.98,2.83-.44,1.06-1.61,1.61-2.69,1.31.04-.08.09-.17.13-.25.93.23,1.92-.25,2.3-1.16Z"/>
                </g>
              </g>
              <g>
                <g>
                  <path class="cls-2" d="M329.7,74.28c-.82,1.9-3.02,2.8-4.93,2-1.92-.79-2.84-2.99-2.07-4.91-.08-.05-.16-.1-.24-.15h0c-.86,2.07.13,4.46,2.2,5.32,2.07.86,4.46-.13,5.32-2.2h0c-.09-.02-.18-.04-.28-.06Z"/>
                  <path class="cls-2" d="M324.89,75.98c1.73.72,3.72-.08,4.48-1.78-.09-.02-.18-.04-.27-.07-.72,1.53-2.53,2.24-4.1,1.59-1.58-.65-2.35-2.43-1.78-4.02-.08-.05-.16-.1-.24-.15-.66,1.74.18,3.71,1.91,4.43Z"/>
                  <path class="cls-2" d="M325.13,75.42c1.4.58,2.99-.04,3.65-1.37-.09-.02-.18-.05-.27-.08-.61,1.17-2.03,1.7-3.28,1.19s-1.87-1.9-1.48-3.16c-.08-.05-.16-.09-.25-.14-.47,1.41.22,2.97,1.62,3.55Z"/>
                  <path class="cls-2" d="M325.46,74.6c-.91-.38-1.39-1.37-1.16-2.3-.08-.04-.17-.09-.25-.13-.3,1.08.24,2.25,1.31,2.69,1.06.44,2.28,0,2.83-.98-.09-.03-.18-.06-.27-.08-.5.82-1.54,1.18-2.45.81Z"/>
                </g>
                <g>
                  <path class="cls-2" d="M353.4,17.06c.76-1.92-.16-4.11-2.07-4.91-1.92-.79-4.12.11-4.93,2-.09-.02-.18-.04-.28-.06h0c.86-2.07,3.24-3.06,5.32-2.2s3.06,3.24,2.2,5.32h0c-.08-.05-.16-.1-.24-.16Z"/>
                  <path class="cls-2" d="M351.2,12.46c1.73.72,2.57,2.69,1.91,4.43-.08-.05-.16-.1-.24-.15.57-1.59-.2-3.37-1.78-4.02-1.58-.65-3.38.06-4.1,1.59-.09-.02-.18-.04-.27-.07.76-1.7,2.75-2.49,4.48-1.78Z"/>
                  <path class="cls-2" d="M350.97,13.02c1.4.58,2.09,2.14,1.62,3.55-.08-.05-.16-.09-.25-.14.4-1.26-.23-2.64-1.48-3.16-1.24-.52-2.66.02-3.28,1.19-.09-.03-.18-.05-.27-.08.66-1.33,2.26-1.95,3.65-1.37Z"/>
                  <path class="cls-2" d="M350.63,13.84c-.91-.38-1.95-.02-2.45.81-.09-.03-.18-.06-.27-.08.55-.98,1.76-1.42,2.83-.98,1.06.44,1.61,1.61,1.31,2.69-.08-.04-.17-.09-.25-.13.23-.93-.25-1.92-1.16-2.3Z"/>
                </g>
              </g>
            </g>
            <g>
              <g>
                <g>
                  <path class="cls-2" d="M310.89,59.57c-1.92.76-4.11-.16-4.91-2.07-.79-1.92.11-4.12,2-4.93-.02-.09-.04-.18-.06-.28h0c-2.07.86-3.06,3.24-2.2,5.32.86,2.07,3.24,3.06,5.32,2.2h0c-.05-.08-.1-.16-.15-.24Z"/>
                  <path class="cls-2" d="M306.29,57.37c.72,1.73,2.69,2.57,4.43,1.91-.05-.08-.1-.16-.15-.24-1.59.57-3.37-.2-4.02-1.78-.65-1.58.06-3.38,1.59-4.1-.02-.09-.04-.18-.07-.27-1.7.76-2.49,2.75-1.78,4.48Z"/>
                  <path class="cls-2" d="M306.85,57.14c.58,1.4,2.14,2.09,3.55,1.62-.05-.08-.09-.16-.14-.25-1.26.4-2.64-.23-3.16-1.48s.02-2.66,1.19-3.28c-.03-.09-.05-.18-.08-.27-1.33.66-1.95,2.26-1.37,3.65Z"/>
                  <path class="cls-2" d="M307.66,56.81c-.38-.91-.02-1.95.81-2.45-.03-.09-.06-.18-.08-.27-.98.55-1.42,1.76-.98,2.83s1.61,1.61,2.69,1.31c-.04-.08-.09-.17-.13-.25-.93.23-1.92-.25-2.3-1.16Z"/>
                </g>
                <g>
                  <path class="cls-2" d="M368.11,35.87c1.9-.82,2.8-3.02,2-4.93-.79-1.92-2.99-2.84-4.91-2.07-.05-.08-.1-.16-.15-.24h0c2.07-.86,4.46.13,5.32,2.2.86,2.07-.13,4.46-2.2,5.32h0c-.02-.09-.04-.19-.06-.28Z"/>
                  <path class="cls-2" d="M369.81,31.07c.72,1.73-.08,3.72-1.78,4.48-.02-.09-.04-.18-.07-.27,1.53-.72,2.24-2.53,1.59-4.1s-2.43-2.35-4.02-1.78c-.05-.08-.1-.16-.15-.24,1.74-.66,3.71.18,4.43,1.91Z"/>
                  <path class="cls-2" d="M369.25,31.3c.58,1.4-.04,2.99-1.37,3.65-.02-.09-.05-.18-.08-.27,1.17-.61,1.7-2.03,1.19-3.28-.52-1.24-1.9-1.87-3.16-1.48-.05-.08-.09-.16-.14-.25,1.41-.47,2.97.22,3.55,1.62Z"/>
                  <path class="cls-2" d="M368.43,31.63c-.38-.91-1.37-1.39-2.3-1.16-.04-.08-.09-.17-.13-.25,1.08-.3,2.25.24,2.69,1.31s0,2.28-.98,2.83c-.03-.09-.06-.18-.08-.27.82-.5,1.18-1.54.81-2.45Z"/>
                </g>
              </g>
              <g>
                <g>
                  <path class="cls-2" d="M353.4,71.38c.76,1.92-.16,4.11-2.07,4.91-1.92.79-4.12-.11-4.93-2-.09.02-.18.04-.28.06h0c.86,2.07,3.24,3.06,5.32,2.2,2.07-.86,3.06-3.24,2.2-5.32h0c-.08.05-.16.1-.24.16Z"/>
                  <path class="cls-2" d="M351.2,75.98c1.73-.72,2.57-2.69,1.91-4.43-.08.05-.16.1-.24.15.57,1.59-.2,3.37-1.78,4.02-1.58.65-3.38-.06-4.1-1.59-.09.02-.18.04-.27.07.76,1.7,2.75,2.49,4.48,1.78Z"/>
                  <path class="cls-2" d="M350.97,75.42c1.4-.58,2.09-2.14,1.62-3.55-.08.05-.16.09-.25.14.4,1.26-.23,2.64-1.48,3.16s-2.66-.02-3.28-1.19c-.09.03-.18.05-.27.08.66,1.33,2.26,1.95,3.65,1.37Z"/>
                  <path class="cls-2" d="M350.63,74.6c-.91.38-1.95.02-2.45-.81-.09.03-.18.06-.27.08.55.98,1.76,1.42,2.83.98,1.06-.44,1.61-1.61,1.31-2.69-.08.04-.17.09-.25.13.23.93-.25,1.92-1.16,2.3Z"/>
                </g>
                <g>
                  <path class="cls-2" d="M329.7,14.16c-.82-1.9-3.02-2.8-4.93-2-1.92.79-2.84,2.99-2.07,4.91-.08.05-.16.1-.24.15h0c-.86-2.07.13-4.46,2.2-5.32,2.07-.86,4.46.13,5.32,2.2h0c-.09.02-.18.04-.28.06Z"/>
                  <path class="cls-2" d="M324.89,12.46c1.73-.72,3.72.08,4.48,1.78-.09.02-.18.04-.27.07-.72-1.53-2.53-2.24-4.1-1.59-1.58.65-2.35,2.43-1.78,4.02-.08.05-.16.1-.24.15-.66-1.74.18-3.71,1.91-4.43Z"/>
                  <path class="cls-2" d="M325.13,13.02c1.4-.58,2.99.04,3.65,1.37-.09.02-.18.05-.27.08-.61-1.17-2.03-1.7-3.28-1.19-1.24.52-1.87,1.9-1.48,3.16-.08.05-.16.09-.25.14-.47-1.41.22-2.97,1.62-3.55Z"/>
                  <path class="cls-2" d="M325.46,13.84c-.91.38-1.39,1.37-1.16,2.3-.08.04-.17.09-.25.13-.3-1.08.24-2.25,1.31-2.69,1.06-.44,2.28,0,2.83.98-.09.03-.18.06-.27.08-.5-.82-1.54-1.18-2.45-.81Z"/>
                </g>
              </g>
            </g>
          </g>
          <g>
            <g>
              <g>
                <g>
                  <g>
                    <path class="cls-2" d="M308.99,20.88c-.57-.2-1.23,0-1.58.53-.06.09-.11.19-.15.29-.65-.06-1.31.23-1.7.81s-.4,1.3-.1,1.88c-.08.07-.15.15-.21.25-.35.53-.29,1.21.12,1.66l-.29,1.4,2.26-3.38.58-.86,2.26-3.38-1.19.8Z"/>
                    <rect class="cls-2" x="307.1" y="26.14" width=".52" height="1.54" transform="translate(114.22 267.52) rotate(-56.25)"/>
                    <rect class="cls-2" x="307.84" y="25.04" width=".52" height="1.54" transform="translate(115.47 267.64) rotate(-56.25)"/>
                    <rect class="cls-2" x="308.58" y="23.93" width=".52" height="1.54" transform="translate(116.72 267.77) rotate(-56.25)"/>
                    <rect class="cls-2" x="309.32" y="22.82" width=".52" height="1.54" transform="translate(117.97 267.89) rotate(-56.25)"/>
                    <rect class="cls-2" x="310.05" y="21.72" width=".52" height="1.54" transform="translate(119.22 268.01) rotate(-56.25)"/>
                  </g>
                  <g>
                    <path class="cls-2" d="M370.73,62.14c.41.45.47,1.14.12,1.66-.06.09-.13.17-.21.25.3.58.29,1.3-.1,1.88s-1.05.87-1.7.81c-.04.1-.08.2-.15.29-.35.53-1.01.73-1.58.53l-1.19.8,2.26-3.38.58-.86,2.26-3.38-.29,1.4Z"/>
                    <rect class="cls-2" x="365.52" y="65.18" width=".52" height="1.54" transform="translate(107.73 333.45) rotate(-56.25)"/>
                    <rect class="cls-2" x="366.26" y="64.07" width=".52" height="1.54" transform="translate(108.98 333.57) rotate(-56.25)"/>
                    <rect class="cls-2" x="367" y="62.97" width=".52" height="1.54" transform="translate(110.22 333.69) rotate(-56.25)"/>
                    <rect class="cls-2" x="367.74" y="61.86" width=".52" height="1.54" transform="translate(111.47 333.82) rotate(-56.25)"/>
                    <rect class="cls-2" x="368.48" y="60.75" width=".52" height="1.54" transform="translate(112.72 333.94) rotate(-56.25)"/>
                  </g>
                </g>
                <g>
                  <g>
                    <path class="cls-2" d="M314.71,73.28c-.2.57,0,1.23.53,1.58.09.06.19.11.29.15-.06.65.23,1.31.81,1.7.58.39,1.3.4,1.88.1.07.08.15.15.25.21.53.35,1.21.29,1.66-.12l1.4.29-3.38-2.26-.86-.58-3.38-2.26.8,1.19Z"/>
                    <rect class="cls-2" x="319.97" y="74.65" width="1.54" height=".52" transform="translate(80.26 299.98) rotate(-56.25)"/>
                    <rect class="cls-2" x="318.86" y="73.91" width="1.54" height=".52" transform="translate(80.38 298.73) rotate(-56.25)"/>
                    <rect class="cls-2" x="317.76" y="73.17" width="1.54" height=".52" transform="translate(80.51 297.48) rotate(-56.25)"/>
                    <rect class="cls-2" x="316.65" y="72.43" width="1.54" height=".52" transform="translate(80.63 296.23) rotate(-56.25)"/>
                    <rect class="cls-2" x="315.54" y="71.69" width="1.54" height=".52" transform="translate(80.75 294.99) rotate(-56.25)"/>
                  </g>
                  <g>
                    <path class="cls-2" d="M355.97,11.54c.45-.41,1.14-.47,1.66-.12.09.06.17.13.25.21.58-.3,1.3-.29,1.88.1s.87,1.05.81,1.7c.1.04.2.08.29.15.53.35.73,1.01.53,1.58l.8,1.19-3.38-2.26-.86-.58-3.38-2.26,1.4.29Z"/>
                    <rect class="cls-2" x="359.01" y="16.23" width="1.54" height=".52" transform="translate(146.19 306.47) rotate(-56.25)"/>
                    <rect class="cls-2" x="357.9" y="15.49" width="1.54" height=".52" transform="translate(146.31 305.23) rotate(-56.25)"/>
                    <rect class="cls-2" x="356.8" y="14.75" width="1.54" height=".52" transform="translate(146.44 303.98) rotate(-56.25)"/>
                    <rect class="cls-2" x="355.69" y="14.01" width="1.54" height=".52" transform="translate(146.56 302.73) rotate(-56.25)"/>
                    <rect class="cls-2" x="354.58" y="13.27" width="1.54" height=".52" transform="translate(146.68 301.48) rotate(-56.25)"/>
                  </g>
                </g>
              </g>
              <g>
                <g>
                  <g>
                    <path class="cls-2" d="M301,48.27c-.55.26-.87.87-.75,1.49.02.11.06.21.1.31-.5.42-.76,1.09-.63,1.77.14.68.64,1.2,1.26,1.4,0,.11,0,.22.02.33.12.62.65,1.06,1.26,1.09l.79,1.2-.79-3.99-.2-1.02-.79-3.99-.27,1.41Z"/>
                    <rect class="cls-2" x="303.34" y="53.42" width="1.54" height=".52" transform="translate(-4.63 60.36) rotate(-11.25)"/>
                    <rect class="cls-2" x="303.08" y="52.12" width="1.54" height=".52" transform="translate(-4.38 60.28) rotate(-11.25)"/>
                    <rect class="cls-2" x="302.82" y="50.81" width="1.54" height=".52" transform="translate(-4.13 60.21) rotate(-11.25)"/>
                    <rect class="cls-2" x="302.56" y="49.51" width="1.54" height=".52" transform="translate(-3.88 60.13) rotate(-11.25)"/>
                    <rect class="cls-2" x="302.3" y="48.2" width="1.54" height=".52" transform="translate(-3.63 60.06) rotate(-11.25)"/>
                  </g>
                  <g>
                    <path class="cls-2" d="M373.83,33.78c.61.03,1.14.47,1.26,1.09.02.11.03.22.02.33.62.19,1.12.71,1.26,1.4s-.13,1.36-.63,1.77c.05.1.08.2.1.31.12.62-.2,1.23-.75,1.49l-.27,1.41-.79-3.99-.2-1.02-.79-3.99.79,1.2Z"/>
                    <rect class="cls-2" x="372.26" y="39.72" width="1.54" height=".52" transform="translate(-.63 73.54) rotate(-11.25)"/>
                    <rect class="cls-2" x="372" y="38.41" width="1.54" height=".52" transform="translate(-.38 73.47) rotate(-11.25)"/>
                    <rect class="cls-2" x="371.74" y="37.11" width="1.54" height=".52" transform="translate(-.13 73.39) rotate(-11.25)"/>
                    <rect class="cls-2" x="371.48" y="35.8" width="1.54" height=".52" transform="translate(.12 73.32) rotate(-11.25)"/>
                    <rect class="cls-2" x="371.22" y="34.5" width="1.54" height=".52" transform="translate(.37 73.24) rotate(-11.25)"/>
                  </g>
                </g>
                <g>
                  <path class="cls-2" d="M327.61,8.44c.03-.61.47-1.14,1.09-1.26.11-.02.22-.03.33-.02.19-.62.71-1.12,1.4-1.26s1.36.13,1.77.63c.1-.05.2-.08.31-.1.62-.12,1.23.2,1.49.75l1.41.27-3.99.79-1.02.2-3.99.79,1.2-.79Z"/>
                  <rect class="cls-2" x="333.54" y="8.47" width=".52" height="1.54" transform="translate(4.61 65.3) rotate(-11.25)"/>
                  <rect class="cls-2" x="332.24" y="8.73" width=".52" height="1.54" transform="translate(4.54 65.05) rotate(-11.25)"/>
                  <rect class="cls-2" x="330.93" y="8.99" width=".52" height="1.54" transform="translate(4.46 64.8) rotate(-11.25)"/>
                  <rect class="cls-2" x="329.63" y="9.25" width=".52" height="1.54" transform="translate(4.38 64.55) rotate(-11.25)"/>
                  <rect class="cls-2" x="328.32" y="9.51" width=".52" height="1.54" transform="translate(4.31 64.3) rotate(-11.25)"/>
                </g>
              </g>
            </g>
            <g>
              <g>
                <g>
                  <g>
                    <path class="cls-2" d="M302.27,33.78c-.61.03-1.14.47-1.26,1.09-.02.11-.03.22-.02.33-.62.19-1.12.71-1.26,1.4s.13,1.36.63,1.77c-.05.1-.08.2-.1.31-.12.62.2,1.23.75,1.49l.27,1.41.79-3.99.2-1.02.79-3.99-.79,1.2Z"/>
                    <rect class="cls-2" x="302.81" y="39.2" width=".52" height="1.54" transform="translate(204.74 329.42) rotate(-78.75)"/>
                    <rect class="cls-2" x="303.07" y="37.9" width=".52" height="1.54" transform="translate(206.23 328.63) rotate(-78.75)"/>
                    <rect class="cls-2" x="303.33" y="36.59" width=".52" height="1.54" transform="translate(207.71 327.83) rotate(-78.75)"/>
                    <rect class="cls-2" x="303.59" y="35.29" width=".52" height="1.54" transform="translate(209.2 327.04) rotate(-78.75)"/>
                    <rect class="cls-2" x="303.85" y="33.98" width=".52" height="1.54" transform="translate(210.69 326.24) rotate(-78.75)"/>
                  </g>
                  <g>
                    <path class="cls-2" d="M375.1,48.27c.55.26.87.87.75,1.49-.02.11-.06.21-.1.31.5.42.76,1.09.63,1.77s-.64,1.2-1.26,1.4c0,.11,0,.22-.02.33-.12.62-.65,1.06-1.26,1.09l-.79,1.2.79-3.99.2-1.02.79-3.99.27,1.41Z"/>
                    <rect class="cls-2" x="371.73" y="52.91" width=".52" height="1.54" transform="translate(246.76 408.05) rotate(-78.75)"/>
                    <rect class="cls-2" x="371.99" y="51.61" width=".52" height="1.54" transform="translate(248.25 407.26) rotate(-78.75)"/>
                    <rect class="cls-2" x="372.25" y="50.3" width=".52" height="1.54" transform="translate(249.74 406.46) rotate(-78.75)"/>
                    <rect class="cls-2" x="372.51" y="49" width=".52" height="1.54" transform="translate(251.23 405.66) rotate(-78.75)"/>
                    <rect class="cls-2" x="372.77" y="47.69" width=".52" height="1.54" transform="translate(252.72 404.87) rotate(-78.75)"/>
                  </g>
                </g>
                <g>
                  <path class="cls-2" d="M342.1,7.17c.26-.55.87-.87,1.49-.75.11.02.21.06.31.1.42-.5,1.09-.76,1.77-.63s1.2.64,1.4,1.26c.11,0,.22,0,.33.02.62.12,1.06.65,1.09,1.26l1.2.79-3.99-.79-1.02-.2-3.99-.79,1.41-.27Z"/>
                  <rect class="cls-2" x="346.74" y="10.02" width="1.54" height=".52" transform="translate(269.63 349.11) rotate(-78.75)"/>
                  <rect class="cls-2" x="345.44" y="9.76" width="1.54" height=".52" transform="translate(268.84 347.62) rotate(-78.75)"/>
                  <rect class="cls-2" x="344.13" y="9.5" width="1.54" height=".52" transform="translate(268.04 346.13) rotate(-78.75)"/>
                  <rect class="cls-2" x="342.83" y="9.24" width="1.54" height=".52" transform="translate(267.25 344.64) rotate(-78.75)"/>
                  <rect class="cls-2" x="341.52" y="8.98" width="1.54" height=".52" transform="translate(266.45 343.15) rotate(-78.75)"/>
                </g>
              </g>
              <g>
                <g>
                  <g>
                    <path class="cls-2" d="M305.37,62.14c-.41.45-.47,1.14-.12,1.66.06.09.13.17.21.25-.3.58-.29,1.3.1,1.88s1.05.87,1.7.81c.04.1.08.2.15.29.35.53,1.01.73,1.58.53l1.19.8-2.26-3.38-.58-.86-2.26-3.38.29,1.4Z"/>
                    <rect class="cls-2" x="309.54" y="65.69" width="1.54" height=".52" transform="translate(15.66 183.52) rotate(-33.75)"/>
                    <rect class="cls-2" x="308.8" y="64.59" width="1.54" height=".52" transform="translate(16.15 182.92) rotate(-33.75)"/>
                    <rect class="cls-2" x="308.06" y="63.48" width="1.54" height=".52" transform="translate(16.64 182.32) rotate(-33.75)"/>
                    <rect class="cls-2" x="307.33" y="62.37" width="1.54" height=".52" transform="translate(17.13 181.72) rotate(-33.75)"/>
                    <rect class="cls-2" x="306.59" y="61.27" width="1.54" height=".52" transform="translate(17.62 181.13) rotate(-33.75)"/>
                  </g>
                  <g>
                    <path class="cls-2" d="M367.11,20.88c.57-.2,1.23,0,1.58.53.06.09.11.19.15.29.65-.06,1.31.23,1.7.81s.4,1.3.1,1.88c.08.07.15.15.21.25.35.53.29,1.21-.12,1.66l.29,1.4-2.26-3.38-.58-.86-2.26-3.38,1.19.8Z"/>
                    <rect class="cls-2" x="367.97" y="26.65" width="1.54" height=".52" transform="translate(47.19 209.4) rotate(-33.75)"/>
                    <rect class="cls-2" x="367.23" y="25.55" width="1.54" height=".52" transform="translate(47.68 208.8) rotate(-33.75)"/>
                    <rect class="cls-2" x="366.49" y="24.44" width="1.54" height=".52" transform="translate(48.17 208.2) rotate(-33.75)"/>
                    <rect class="cls-2" x="365.75" y="23.33" width="1.54" height=".52" transform="translate(48.66 207.61) rotate(-33.75)"/>
                    <rect class="cls-2" x="365.01" y="22.23" width="1.54" height=".52" transform="translate(49.15 207.01) rotate(-33.75)"/>
                  </g>
                </g>
                <g>
                  <g>
                    <path class="cls-2" d="M355.97,76.9c.45.41,1.14.47,1.66.12.09-.06.17-.13.25-.21.58.3,1.3.29,1.88-.1s.87-1.05.81-1.7c.1-.04.2-.08.29-.15.53-.35.73-1.01.53-1.58l.8-1.19-3.38,2.26-.86.58-3.38,2.26,1.4-.29Z"/>
                    <rect class="cls-2" x="359.52" y="71.18" width=".52" height="1.54" transform="translate(20.66 212.01) rotate(-33.75)"/>
                    <rect class="cls-2" x="358.41" y="71.92" width=".52" height="1.54" transform="translate(20.06 211.52) rotate(-33.75)"/>
                    <rect class="cls-2" x="357.31" y="72.66" width=".52" height="1.54" transform="translate(19.46 211.03) rotate(-33.75)"/>
                    <rect class="cls-2" x="356.2" y="73.4" width=".52" height="1.54" transform="translate(18.87 210.54) rotate(-33.75)"/>
                    <rect class="cls-2" x="355.1" y="74.14" width=".52" height="1.54" transform="translate(18.27 210.05) rotate(-33.75)"/>
                  </g>
                  <g>
                    <path class="cls-2" d="M314.71,15.16c-.2-.57,0-1.23.53-1.58.09-.06.19-.11.29-.15-.06-.65.23-1.31.81-1.7s1.3-.4,1.88-.1c.07-.08.15-.15.25-.21.53-.35,1.21-.29,1.66.12l1.4-.29-3.38,2.26-.86.58-3.38,2.26.8-1.19Z"/>
                    <rect class="cls-2" x="320.48" y="12.76" width=".52" height="1.54" transform="translate(46.54 180.48) rotate(-33.75)"/>
                    <rect class="cls-2" x="319.38" y="13.5" width=".52" height="1.54" transform="translate(45.94 179.98) rotate(-33.75)"/>
                    <rect class="cls-2" x="318.27" y="14.24" width=".52" height="1.54" transform="translate(45.34 179.49) rotate(-33.75)"/>
                    <rect class="cls-2" x="317.16" y="14.97" width=".52" height="1.54" transform="translate(44.75 179) rotate(-33.75)"/>
                    <rect class="cls-2" x="316.06" y="15.71" width=".52" height="1.54" transform="translate(44.15 178.51) rotate(-33.75)"/>
                  </g>
                </g>
              </g>
            </g>
          </g>
          <g>
            <g>
              <g>
                <g>
                  <polygon class="cls-2" points="334.53 18.23 334.23 18.29 334.16 17.98 333.81 18.05 333.88 18.36 333.57 18.42 333.64 18.77 333.95 18.71 334.01 19.02 334.36 18.95 334.3 18.64 334.6 18.58 334.53 18.23"/>
                  <g>
                    <polygon class="cls-2" points="332.53 16.93 332.22 16.99 332.16 16.69 331.81 16.76 331.87 17.06 331.56 17.13 331.63 17.48 331.94 17.41 332 17.72 332.35 17.65 332.29 17.34 332.6 17.28 332.53 16.93"/>
                    <polygon class="cls-2" points="333.18 20.19 332.87 20.25 332.81 19.94 332.46 20.01 332.52 20.32 332.21 20.38 332.28 20.73 332.59 20.67 332.65 20.98 333 20.91 332.94 20.6 333.25 20.54 333.18 20.19"/>
                  </g>
                </g>
                <g>
                  <polygon class="cls-2" points="341.57 18.23 341.88 18.29 341.94 17.98 342.29 18.05 342.23 18.36 342.54 18.42 342.47 18.77 342.16 18.71 342.1 19.02 341.75 18.95 341.81 18.64 341.5 18.58 341.57 18.23"/>
                  <g>
                    <polygon class="cls-2" points="343.58 16.93 343.89 16.99 343.95 16.69 344.3 16.76 344.24 17.06 344.55 17.13 344.48 17.48 344.17 17.41 344.11 17.72 343.76 17.65 343.82 17.34 343.51 17.28 343.58 16.93"/>
                    <polygon class="cls-2" points="342.93 20.19 343.24 20.25 343.3 19.94 343.65 20.01 343.59 20.32 343.9 20.38 343.83 20.73 343.52 20.67 343.46 20.98 343.11 20.91 343.17 20.6 342.86 20.54 342.93 20.19"/>
                  </g>
                </g>
              </g>
              <g>
                <g>
                  <polygon class="cls-2" points="334.52 70.21 334.22 70.15 334.15 70.46 333.8 70.39 333.87 70.08 333.56 70.02 333.63 69.67 333.93 69.73 334 69.42 334.35 69.49 334.28 69.8 334.59 69.86 334.52 70.21"/>
                  <g>
                    <polygon class="cls-2" points="332.52 71.51 332.21 71.45 332.15 71.75 331.8 71.68 331.86 71.38 331.55 71.31 331.62 70.96 331.93 71.03 331.99 70.72 332.34 70.79 332.28 71.1 332.59 71.16 332.52 71.51"/>
                    <polygon class="cls-2" points="333.17 68.25 332.86 68.19 332.8 68.5 332.45 68.43 332.51 68.12 332.2 68.06 332.27 67.71 332.58 67.77 332.64 67.46 332.99 67.53 332.93 67.84 333.24 67.9 333.17 68.25"/>
                  </g>
                </g>
                <g>
                  <polygon class="cls-2" points="341.56 70.21 341.87 70.15 341.93 70.46 342.28 70.39 342.22 70.08 342.53 70.02 342.46 69.67 342.15 69.73 342.09 69.42 341.74 69.49 341.8 69.8 341.49 69.86 341.56 70.21"/>
                  <g>
                    <polygon class="cls-2" points="343.57 71.51 343.88 71.45 343.94 71.75 344.29 71.68 344.23 71.38 344.53 71.31 344.46 70.96 344.16 71.03 344.1 70.72 343.75 70.79 343.81 71.1 343.5 71.16 343.57 71.51"/>
                    <polygon class="cls-2" points="342.92 68.25 343.23 68.19 343.29 68.5 343.64 68.43 343.58 68.12 343.89 68.06 343.82 67.71 343.51 67.77 343.45 67.46 343.1 67.53 343.16 67.84 342.85 67.9 342.92 68.25"/>
                  </g>
                </g>
              </g>
            </g>
            <g>
              <g>
                <g>
                  <polygon class="cls-2" points="312.06 47.73 312.12 48.04 311.81 48.1 311.88 48.45 312.19 48.39 312.25 48.7 312.6 48.63 312.54 48.32 312.85 48.26 312.78 47.91 312.47 47.97 312.41 47.67 312.06 47.73"/>
                  <g>
                    <polygon class="cls-2" points="310.76 49.74 310.82 50.05 310.52 50.11 310.58 50.46 310.89 50.4 310.95 50.71 311.3 50.64 311.24 50.33 311.55 50.27 311.48 49.92 311.17 49.98 311.11 49.67 310.76 49.74"/>
                    <polygon class="cls-2" points="314.02 49.09 314.08 49.4 313.77 49.46 313.84 49.81 314.15 49.75 314.21 50.06 314.56 49.99 314.5 49.68 314.81 49.62 314.74 49.27 314.43 49.33 314.37 49.02 314.02 49.09"/>
                  </g>
                </g>
                <g>
                  <polygon class="cls-2" points="312.06 40.69 312.12 40.39 311.81 40.33 311.88 39.98 312.19 40.04 312.25 39.73 312.6 39.8 312.54 40.11 312.85 40.17 312.78 40.52 312.47 40.46 312.41 40.76 312.06 40.69"/>
                  <g>
                    <polygon class="cls-2" points="310.76 38.69 310.82 38.38 310.52 38.32 310.58 37.97 310.89 38.03 310.95 37.72 311.3 37.79 311.24 38.1 311.55 38.16 311.48 38.51 311.17 38.45 311.11 38.76 310.76 38.69"/>
                    <polygon class="cls-2" points="314.02 39.34 314.08 39.03 313.77 38.97 313.84 38.62 314.15 38.68 314.21 38.37 314.56 38.44 314.5 38.75 314.81 38.81 314.74 39.16 314.43 39.1 314.37 39.41 314.02 39.34"/>
                  </g>
                </g>
              </g>
              <g>
                <g>
                  <polygon class="cls-2" points="364.04 47.75 363.98 48.05 364.29 48.11 364.22 48.46 363.91 48.4 363.85 48.71 363.5 48.64 363.56 48.33 363.25 48.27 363.32 47.92 363.63 47.98 363.69 47.68 364.04 47.75"/>
                  <g>
                    <polygon class="cls-2" points="365.34 49.75 365.27 50.06 365.58 50.12 365.51 50.47 365.2 50.41 365.14 50.72 364.79 50.65 364.85 50.34 364.55 50.28 364.62 49.93 364.92 49.99 364.99 49.68 365.34 49.75"/>
                    <polygon class="cls-2" points="362.08 49.1 362.02 49.41 362.32 49.47 362.25 49.82 361.95 49.76 361.89 50.07 361.54 50 361.6 49.69 361.29 49.63 361.36 49.28 361.67 49.34 361.73 49.03 362.08 49.1"/>
                  </g>
                </g>
                <g>
                  <polygon class="cls-2" points="364.04 40.71 363.98 40.4 364.29 40.34 364.22 39.99 363.91 40.05 363.85 39.74 363.5 39.81 363.56 40.12 363.25 40.18 363.32 40.53 363.63 40.47 363.69 40.77 364.04 40.71"/>
                  <g>
                    <polygon class="cls-2" points="365.34 38.7 365.27 38.39 365.58 38.33 365.51 37.98 365.2 38.04 365.14 37.73 364.79 37.8 364.85 38.11 364.55 38.17 364.62 38.52 364.92 38.46 364.99 38.77 365.34 38.7"/>
                    <polygon class="cls-2" points="362.08 39.35 362.02 39.04 362.32 38.98 362.25 38.63 361.95 38.69 361.89 38.38 361.54 38.45 361.6 38.76 361.29 38.82 361.36 39.17 361.67 39.11 361.73 39.42 362.08 39.35"/>
                  </g>
                </g>
              </g>
            </g>
          </g>
          <g>
            <g>
              <g>
                <polygon class="cls-2" points="315.6 29.91 315.87 29.73 315.69 29.47 315.99 29.27 316.16 29.53 316.42 29.36 316.62 29.66 316.36 29.83 316.53 30.09 316.24 30.29 316.06 30.03 315.8 30.2 315.6 29.91"/>
                <g>
                  <polygon class="cls-2" points="316.11 27.57 316.37 27.4 316.19 27.14 316.49 26.94 316.66 27.2 316.93 27.03 317.12 27.32 316.86 27.5 317.04 27.76 316.74 27.96 316.57 27.7 316.3 27.87 316.11 27.57"/>
                  <polygon class="cls-2" points="317.95 30.34 318.21 30.16 318.04 29.9 318.33 29.7 318.51 29.96 318.77 29.79 318.97 30.08 318.71 30.26 318.88 30.52 318.59 30.72 318.41 30.46 318.15 30.63 317.95 30.34"/>
                </g>
              </g>
              <g>
                <polygon class="cls-2" points="323.74 21.77 323.57 22.03 323.31 21.85 323.11 22.15 323.37 22.33 323.2 22.59 323.49 22.79 323.67 22.52 323.93 22.7 324.13 22.4 323.86 22.23 324.04 21.97 323.74 21.77"/>
                <g>
                  <polygon class="cls-2" points="321.41 22.27 321.24 22.53 320.97 22.36 320.78 22.65 321.04 22.83 320.86 23.09 321.16 23.29 321.33 23.03 321.59 23.2 321.79 22.9 321.53 22.73 321.71 22.47 321.41 22.27"/>
                  <polygon class="cls-2" points="324.17 24.12 324 24.38 323.74 24.2 323.54 24.5 323.8 24.67 323.62 24.93 323.92 25.13 324.1 24.87 324.36 25.05 324.55 24.75 324.29 24.57 324.47 24.31 324.17 24.12"/>
                </g>
              </g>
              <g>
                <polygon class="cls-2" points="352.35 66.67 352.53 66.41 352.79 66.59 352.99 66.29 352.73 66.11 352.9 65.85 352.61 65.65 352.43 65.92 352.17 65.74 351.97 66.04 352.23 66.21 352.06 66.47 352.35 66.67"/>
                <g>
                  <polygon class="cls-2" points="354.69 66.17 354.86 65.91 355.12 66.08 355.32 65.79 355.06 65.61 355.24 65.35 354.94 65.15 354.76 65.41 354.5 65.24 354.3 65.54 354.57 65.71 354.39 65.97 354.69 66.17"/>
                  <polygon class="cls-2" points="351.93 64.32 352.1 64.06 352.36 64.24 352.56 63.94 352.3 63.77 352.47 63.51 352.18 63.31 352 63.57 351.74 63.39 351.54 63.69 351.8 63.87 351.63 64.13 351.93 64.32"/>
                </g>
              </g>
              <g>
                <polygon class="cls-2" points="360.49 58.53 360.23 58.71 360.41 58.97 360.11 59.17 359.94 58.91 359.67 59.08 359.48 58.78 359.74 58.61 359.56 58.35 359.86 58.15 360.03 58.41 360.3 58.24 360.49 58.53"/>
                <g>
                  <polygon class="cls-2" points="359.99 60.87 359.73 61.04 359.9 61.3 359.61 61.5 359.43 61.24 359.17 61.41 358.97 61.12 359.24 60.94 359.06 60.68 359.36 60.48 359.53 60.74 359.79 60.57 359.99 60.87"/>
                  <polygon class="cls-2" points="358.15 58.1 357.88 58.28 358.06 58.54 357.76 58.74 357.59 58.48 357.33 58.65 357.13 58.36 357.39 58.18 357.22 57.92 357.51 57.72 357.69 57.98 357.95 57.81 358.15 58.1"/>
                </g>
              </g>
            </g>
            <g>
              <g>
                <polygon class="cls-2" points="323.74 66.66 323.56 66.4 323.3 66.58 323.1 66.28 323.36 66.11 323.19 65.85 323.48 65.65 323.66 65.91 323.92 65.73 324.12 66.03 323.86 66.21 324.03 66.47 323.74 66.66"/>
                <g>
                  <polygon class="cls-2" points="321.4 66.16 321.23 65.9 320.97 66.08 320.77 65.78 321.03 65.6 320.85 65.34 321.15 65.15 321.33 65.41 321.59 65.23 321.79 65.53 321.52 65.7 321.7 65.96 321.4 66.16"/>
                  <polygon class="cls-2" points="324.16 64.32 323.99 64.06 323.73 64.23 323.53 63.93 323.79 63.76 323.62 63.5 323.91 63.3 324.09 63.56 324.35 63.39 324.55 63.68 324.29 63.86 324.46 64.12 324.16 64.32"/>
                </g>
              </g>
              <g>
                <polygon class="cls-2" points="315.6 58.53 315.86 58.7 315.68 58.96 315.98 59.16 316.15 58.9 316.42 59.07 316.61 58.78 316.35 58.6 316.53 58.34 316.23 58.14 316.06 58.4 315.79 58.23 315.6 58.53"/>
                <g>
                  <polygon class="cls-2" points="316.1 60.86 316.36 61.03 316.19 61.29 316.48 61.49 316.66 61.23 316.92 61.41 317.12 61.11 316.85 60.93 317.03 60.67 316.73 60.48 316.56 60.74 316.3 60.56 316.1 60.86"/>
                  <polygon class="cls-2" points="317.94 58.1 318.21 58.27 318.03 58.53 318.33 58.73 318.5 58.47 318.76 58.64 318.96 58.35 318.7 58.17 318.87 57.91 318.58 57.71 318.4 57.97 318.14 57.8 317.94 58.1"/>
                </g>
              </g>
              <g>
                <polygon class="cls-2" points="360.5 29.91 360.24 29.74 360.41 29.48 360.12 29.28 359.94 29.54 359.68 29.37 359.48 29.66 359.74 29.84 359.57 30.1 359.87 30.3 360.04 30.04 360.3 30.21 360.5 29.91"/>
                <g>
                  <polygon class="cls-2" points="360 27.58 359.74 27.41 359.91 27.15 359.62 26.95 359.44 27.21 359.18 27.03 358.98 27.33 359.24 27.5 359.07 27.77 359.36 27.96 359.54 27.7 359.8 27.88 360 27.58"/>
                  <polygon class="cls-2" points="358.15 30.34 357.89 30.17 358.07 29.91 357.77 29.71 357.6 29.97 357.33 29.8 357.14 30.09 357.4 30.27 357.22 30.53 357.52 30.73 357.69 30.46 357.96 30.64 358.15 30.34"/>
                </g>
              </g>
              <g>
                <polygon class="cls-2" points="352.36 21.77 352.54 22.04 352.8 21.86 353 22.16 352.74 22.33 352.91 22.59 352.61 22.79 352.44 22.53 352.18 22.71 351.98 22.41 352.24 22.23 352.07 21.97 352.36 21.77"/>
                <g>
                  <polygon class="cls-2" points="354.7 22.28 354.87 22.54 355.13 22.36 355.33 22.66 355.07 22.84 355.24 23.1 354.95 23.29 354.77 23.03 354.51 23.21 354.31 22.91 354.57 22.74 354.4 22.48 354.7 22.28"/>
                  <polygon class="cls-2" points="351.93 24.12 352.11 24.38 352.37 24.21 352.57 24.51 352.31 24.68 352.48 24.94 352.18 25.14 352.01 24.88 351.75 25.05 351.55 24.76 351.81 24.58 351.64 24.32 351.93 24.12"/>
                </g>
              </g>
            </g>
          </g>
          <g>
            <g>
              <g>
                <g>
                  <rect class="cls-2" x="308.4" y="14.69" width="2.71" height="2.71" transform="translate(79.32 223.66) rotate(-44.98)"/>
                  <path class="cls-2" d="M311.9,14.4c-.08.08-.1.2-.06.3l-.35.35-.3-.3.32-.32-.15-.15-.32.32-.3-.3.35-.35c.1.04.22.02.3-.06.11-.11.11-.28,0-.39-.11-.11-.28-.11-.39,0-.08.08-.1.2-.06.3l-.35.35-.8-.8.3-.3-.35-.35-.35.35.3.3-.35.35-.32-.32-.15.15.32.32-.3.3-.39-.39c.02-.08,0-.16-.05-.22-.09-.09-.23-.09-.31,0s-.09.23,0,.31h0c.06.06.14.08.22.05l.39.39-.3.3-.32-.32-.15.15.32.32-.3.3-.39-.39c.02-.07,0-.16-.05-.22-.09-.09-.23-.09-.31,0s-.09.23,0,.31c.06.06.14.08.22.05l.39.39-.3.3-.32-.32-.15.15.32.32-.35.35-.3-.3-.35.35.35.35.3-.3.35.35-.32.32.15.15.32-.32.3.3-.39.39c-.08-.02-.16,0-.22.05-.09.09-.09.23,0,.31s.23.09.31,0c.06-.06.08-.14.05-.22l.39-.39.3.3-.32.32.15.15.32-.32.3.3-.39.39c-.07-.02-.16,0-.22.05-.09.09-.09.23,0,.31.09.09.23.09.31,0,.06-.06.08-.14.05-.22l.39-.39.3.3-.32.32.15.15.32-.32.35.35-.3.3.35.35.35-.35-.3-.3.35-.35.32.32.15-.15-.32-.32.3-.3.39.39c-.02.08,0,.16.05.22.09.09.23.09.31,0,.09-.09.09-.23,0-.31-.06-.06-.14-.08-.22-.05l-.39-.39.3-.3.32.32.15-.15-.32-.32.3-.3.39.39c-.02.07,0,.16.05.22.09.09.23.09.31,0,.09-.09.09-.23,0-.31-.06-.06-.14-.08-.22-.05l-.39-.39.3-.3.32.32.15-.15-.32-.32.35-.35.3.3.35-.35-.35-.35-.3.3-.35-.35.32-.32-.15-.15-.32.32-.3-.3.35-.35c.1.04.22.02.3-.06.11-.11.11-.28,0-.39h0c-.11-.11-.28-.11-.39,0ZM312.19,16.04l-2.44,2.43-2.43-2.44,2.44-2.43,2.43,2.44Z"/>
                </g>
                <g>
                  <path class="cls-2" d="M323.42,7.67c-.2.49-.26,1.01-.2,1.51-.3-.4-.71-.72-1.21-.92-.79-.33-1.64-.29-2.36.05.28.74.85,1.38,1.64,1.7.76.31,1.57.29,2.27,0,.7-.29,1.3-.84,1.61-1.6.33-.79.29-1.64-.05-2.36-.74.28-1.38.85-1.7,1.64Z"/>
                  <rect class="cls-2" x="321.32" y="5.38" width="1.1" height="1.1" transform="translate(193.26 301.05) rotate(-67.51)"/>
                  <rect class="cls-2" x="319.87" y="5.99" width="1.1" height="1.1" transform="translate(191.8 300.08) rotate(-67.51)"/>
                  <rect class="cls-2" x="322.78" y="4.78" width="1.1" height="1.1" transform="translate(194.72 302.03) rotate(-67.51)"/>
                </g>
              </g>
              <g>
                <rect class="cls-2" x="308.4" y="71.05" width="2.71" height="2.71" transform="translate(39.58 240.32) rotate(-45.02)"/>
                <path class="cls-2" d="M311.9,74.05c-.08-.08-.1-.2-.06-.3l-.35-.35-.3.3.32.32-.15.15-.32-.32-.3.3.35.35c.1-.04.22-.02.3.06.11.11.11.28,0,.39-.11.11-.28.11-.39,0-.08-.08-.1-.2-.06-.3l-.35-.35-.8.8.3.3-.35.35-.35-.35.3-.3-.35-.35-.32.32-.15-.15.32-.32-.3-.3-.39.39c.02.08,0,.16-.05.22-.09.09-.23.09-.31,0s-.09-.23,0-.31h0c.06-.06.14-.08.22-.05l.39-.39-.3-.3-.32.32-.15-.15.32-.32-.3-.3-.39.39c.02.07,0,.16-.05.22-.09.09-.23.09-.31,0s-.09-.23,0-.31c.06-.06.14-.08.22-.05l.39-.39-.3-.3-.32.32-.15-.15.32-.32-.35-.35-.3.3-.35-.35.35-.35.3.3.35-.35-.32-.32.15-.15.32.32.3-.3-.39-.39c-.08.02-.16,0-.22-.05-.09-.09-.09-.23,0-.31s.23-.09.31,0c.06.06.08.14.05.22l.39.39.3-.3-.32-.32.15-.15.32.32.3-.3-.39-.39c-.07.02-.16,0-.22-.05-.09-.09-.09-.23,0-.31.09-.09.23-.09.31,0,.06.06.08.14.05.22l.39.39.3-.3-.32-.32.15-.15.32.32.35-.35-.3-.3.35-.35.35.35-.3.3.35.35.32-.32.15.15-.32.32.3.3.39-.39c-.02-.08,0-.16.05-.22.09-.09.23-.09.31,0,.09.09.09.23,0,.31-.06.06-.14.08-.22.05l-.39.39.3.3.32-.32.15.15-.32.32.3.3.39-.39c-.02-.07,0-.16.05-.22.09-.09.23-.09.31,0,.09.09.09.23,0,.31-.06.06-.14.08-.22.05l-.39.39.3.3.32-.32.15.15-.32.32.35.35.3-.3.35.35-.35.35-.3-.3-.35.35.32.32-.15.15-.32-.32-.3.3.35.35c.1-.04.22-.02.3.06.11.11.11.28,0,.39h0c-.11.11-.28.11-.39,0ZM312.19,72.41l-2.44-2.43-2.43,2.44,2.44,2.43,2.43-2.44Z"/>
              </g>
            </g>
            <g>
              <g>
                <path class="cls-2" d="M335.9,4.62s0-.04,0-.06v-1.78c0-.13.1-.23.23-.23s.23.1.23.23v.39s0,0,0,0c0,0,0,.98,0,.98,0,0,0,.01,0,.01,0,.12.1.21.22.21s.22-.1.22-.22v-.97h0v-1.61c0-.14.11-.25.25-.25s.25.11.25.25v.95s0,0,0,0v1.08c0,.14.11.25.25.25s.25-.11.25-.25v-1.07h0v-.22s0-1.1,0-1.1c0-.14.11-.25.25-.25.14,0,.25.11.25.25v1.12s0,.17,0,.17v.85s0,0,0,0v.25c0,.14.11.25.25.25s.25-.11.25-.25v-1.06s0,0,0,0v-.59c0-.14.11-.25.25-.25s.25.11.25.25v1.1s0,.36,0,.36h0s0,.98,0,.98c0,.12.1.22.22.22.11,0,.2-.08.22-.19,0,0,0-.03,0-.04v-.94c0-.13.1-.23.23-.23s.23.1.23.23v1.12s0,.04,0,.06h0s0,.25,0,.25v.22c0,1.19-1.3,2.16-2.16,2.16-.92,0-2.16-.97-2.16-2.16v-.22s0-.25,0-.25h0Z"/>
                <g>
                  <rect class="cls-2" x="364.99" y="14.69" width="2.71" height="2.71" transform="translate(96.03 263.82) rotate(-45.02)"/>
                  <path class="cls-2" d="M364.2,14.4c.08.08.1.2.06.3l.35.35.3-.3-.32-.32.15-.15.32.32.3-.3-.35-.35c-.1.04-.22.02-.3-.06-.11-.11-.11-.28,0-.39.11-.11.28-.11.39,0,.08.08.1.2.06.3l.35.35.8-.8-.3-.3.35-.35.35.35-.3.3.35.35.32-.32.15.15-.32.32.3.3.39-.39c-.02-.08,0-.16.05-.22.09-.09.23-.09.31,0s.09.23,0,.31h0c-.06.06-.14.08-.22.05l-.39.39.3.3.32-.32.15.15-.32.32.3.3.39-.39c-.02-.07,0-.16.05-.22.09-.09.23-.09.31,0s.09.23,0,.31c-.06.06-.14.08-.22.05l-.39.39.3.3.32-.32.15.15-.32.32.35.35.3-.3.35.35-.35.35-.3-.3-.35.35.32.32-.15.15-.32-.32-.3.3.39.39c.08-.02.16,0,.22.05.09.09.09.23,0,.31s-.23.09-.31,0c-.06-.06-.08-.14-.05-.22l-.39-.39-.3.3.32.32-.15.15-.32-.32-.3.3.39.39c.07-.02.16,0,.22.05.09.09.09.23,0,.31-.09.09-.23.09-.31,0-.06-.06-.08-.14-.05-.22l-.39-.39-.3.3.32.32-.15.15-.32-.32-.35.35.3.3-.35.35-.35-.35.3-.3-.35-.35-.32.32-.15-.15.32-.32-.3-.3-.39.39c.02.08,0,.16-.05.22-.09.09-.23.09-.31,0-.09-.09-.09-.23,0-.31.06-.06.14-.08.22-.05l.39-.39-.3-.3-.32.32-.15-.15.32-.32-.3-.3-.39.39c.02.07,0,.16-.05.22-.09.09-.23.09-.31,0-.09-.09-.09-.23,0-.31.06-.06.14-.08.22-.05l.39-.39-.3-.3-.32.32-.15-.15.32-.32-.35-.35-.3.3-.35-.35.35-.35.3.3.35-.35-.32-.32.15-.15.32.32.3-.3-.35-.35c-.1.04-.22.02-.3-.06-.11-.11-.11-.28,0-.39h0c.11-.11.28-.11.39,0ZM363.91,16.04l2.44,2.43,2.43-2.44-2.44-2.43-2.43,2.44Z"/>
                </g>
                <g>
                  <path class="cls-2" d="M352.69,7.67c.2.49.26,1.01.2,1.51.3-.4.71-.72,1.21-.92.79-.33,1.64-.29,2.36.05-.28.74-.85,1.38-1.64,1.7-.76.31-1.57.29-2.27,0-.7-.29-1.3-.84-1.61-1.6-.33-.79-.29-1.64.05-2.36.74.28,1.38.85,1.7,1.64Z"/>
                  <rect class="cls-2" x="353.68" y="5.38" width="1.1" height="1.1" transform="translate(24.67 135.96) rotate(-22.49)"/>
                  <rect class="cls-2" x="355.14" y="5.99" width="1.1" height="1.1" transform="translate(24.55 136.56) rotate(-22.49)"/>
                  <rect class="cls-2" x="352.22" y="4.78" width="1.1" height="1.1" transform="translate(24.79 135.36) rotate(-22.49)"/>
                </g>
              </g>
              <g>
                <rect class="cls-2" x="364.99" y="71.05" width="2.71" height="2.71" transform="translate(56.04 280.16) rotate(-44.98)"/>
                <path class="cls-2" d="M364.2,74.05c.08-.08.1-.2.06-.3l.35-.35.3.3-.32.32.15.15.32-.32.3.3-.35.35c-.1-.04-.22-.02-.3.06-.11.11-.11.28,0,.39.11.11.28.11.39,0,.08-.08.1-.2.06-.3l.35-.35.8.8-.3.3.35.35.35-.35-.3-.3.35-.35.32.32.15-.15-.32-.32.3-.3.39.39c-.02.08,0,.16.05.22.09.09.23.09.31,0s.09-.23,0-.31h0c-.06-.06-.14-.08-.22-.05l-.39-.39.3-.3.32.32.15-.15-.32-.32.3-.3.39.39c-.02.07,0,.16.05.22.09.09.23.09.31,0s.09-.23,0-.31c-.06-.06-.14-.08-.22-.05l-.39-.39.3-.3.32.32.15-.15-.32-.32.35-.35.3.3.35-.35-.35-.35-.3.3-.35-.35.32-.32-.15-.15-.32.32-.3-.3.39-.39c.08.02.16,0,.22-.05.09-.09.09-.23,0-.31s-.23-.09-.31,0c-.06.06-.08.14-.05.22l-.39.39-.3-.3.32-.32-.15-.15-.32.32-.3-.3.39-.39c.07.02.16,0,.22-.05.09-.09.09-.23,0-.31-.09-.09-.23-.09-.31,0-.06.06-.08.14-.05.22l-.39.39-.3-.3.32-.32-.15-.15-.32.32-.35-.35.3-.3-.35-.35-.35.35.3.3-.35.35-.32-.32-.15.15.32.32-.3.3-.39-.39c.02-.08,0-.16-.05-.22-.09-.09-.23-.09-.31,0-.09.09-.09.23,0,.31.06.06.14.08.22.05l.39.39-.3.3-.32-.32-.15.15.32.32-.3.3-.39-.39c.02-.07,0-.16-.05-.22-.09-.09-.23-.09-.31,0-.09.09-.09.23,0,.31.06.06.14.08.22.05l.39.39-.3.3-.32-.32-.15.15.32.32-.35.35-.3-.3-.35.35.35.35.3-.3.35.35-.32.32.15.15.32-.32.3.3-.35.35c-.1-.04-.22-.02-.3.06-.11.11-.11.28,0,.39h0c.11.11.28.11.39,0ZM363.91,72.41l2.44-2.43,2.43,2.44-2.44,2.43-2.43-2.44Z"/>
              </g>
            </g>
          </g>
          <g>
            <g>
              <g>
                <path class="cls-2" d="M301.5,58.86c.49.2,1.01.26,1.51.2-.4.3-.72.71-.92,1.21-.33.79-.29,1.64.05,2.36.74-.28,1.38-.85,1.7-1.64.31-.76.29-1.57,0-2.27-.29-.7-.84-1.3-1.6-1.61-.79-.33-1.64-.29-2.36.05.28.74.85,1.38,1.64,1.7Z"/>
                <rect class="cls-2" x="299.21" y="59.85" width="1.1" height="1.1" transform="translate(129.28 314.26) rotate(-67.51)"/>
                <rect class="cls-2" x="299.82" y="61.31" width="1.1" height="1.1" transform="translate(128.31 315.72) rotate(-67.51)"/>
                <rect class="cls-2" x="298.61" y="58.4" width="1.1" height="1.1" transform="translate(130.26 312.8) rotate(-67.51)"/>
              </g>
              <g>
                <path class="cls-2" d="M374.61,58.86c-.49.2-1.01.26-1.51.2.4.3.72.71.92,1.21.33.79.29,1.64-.05,2.36-.74-.28-1.38-.85-1.7-1.64-.31-.76-.29-1.57,0-2.27.29-.7.84-1.3,1.6-1.61.79-.33,1.64-.29,2.36.05-.28.74-.85,1.38-1.64,1.7Z"/>
                <rect class="cls-2" x="375.79" y="59.85" width="1.1" height="1.1" transform="translate(5.52 148.56) rotate(-22.49)"/>
                <rect class="cls-2" x="375.19" y="61.31" width="1.1" height="1.1" transform="translate(4.92 148.44) rotate(-22.49)"/>
                <rect class="cls-2" x="376.39" y="58.4" width="1.1" height="1.1" transform="translate(6.12 148.68) rotate(-22.49)"/>
              </g>
            </g>
            <g>
              <g>
                <path class="cls-2" d="M298.44,46.38s-.04,0-.06,0h-1.78c-.13,0-.23-.1-.23-.23s.1-.23.23-.23h.39s0,0,0,0c0,0,.98,0,.98,0,0,0,.01,0,.01,0,.12,0,.21-.1.21-.22s-.1-.22-.22-.22h-.97s-1.61,0-1.61,0c-.14,0-.25-.11-.25-.25s.11-.25.25-.25h.95s0,0,0,0h1.08c.14,0,.25-.11.25-.25s-.11-.25-.25-.25h-1.07s-.22,0-.22,0h-1.1c-.14,0-.25-.11-.25-.25,0-.14.11-.25.25-.25h1.12s.17,0,.17,0h.85s0,0,0,0h.25c.14,0,.25-.11.25-.25s-.11-.25-.25-.25h-1.06s0,0,0,0h-.59c-.14,0-.25-.11-.25-.25s.11-.25.25-.25h1.1s.36,0,.36,0h0s.98,0,.98,0c.12,0,.22-.1.22-.22,0-.11-.08-.2-.19-.22,0,0-.03,0-.04,0h-.94c-.13,0-.23-.1-.23-.23s.1-.23.23-.23h1.12s.04,0,.06,0h0s.25,0,.25,0h.22c1.19,0,2.16,1.3,2.16,2.16,0,.92-.97,2.16-2.16,2.16h-.22s-.25,0-.25,0h0Z"/>
                <g>
                  <path class="cls-2" d="M301.5,29.59c.49-.2,1.01-.26,1.51-.2-.4-.3-.72-.71-.92-1.21-.33-.79-.29-1.64.05-2.36.74.28,1.38.85,1.7,1.64.31.76.29,1.57,0,2.27-.29.7-.84,1.3-1.6,1.61-.79.33-1.64.29-2.36-.05.28-.74.85-1.38,1.64-1.7Z"/>
                  <rect class="cls-2" x="299.21" y="27.49" width="1.1" height="1.1" transform="translate(12.07 116.81) rotate(-22.49)"/>
                  <rect class="cls-2" x="299.82" y="26.04" width="1.1" height="1.1" transform="translate(12.68 116.92) rotate(-22.49)"/>
                  <rect class="cls-2" x="298.61" y="28.95" width="1.1" height="1.1" transform="translate(11.47 116.68) rotate(-22.49)"/>
                </g>
              </g>
              <g>
                <path class="cls-2" d="M377.66,46.38s.04,0,.06,0h1.78c.13,0,.23-.1.23-.23s-.1-.23-.23-.23h-.39s0,0,0,0c0,0-.98,0-.98,0,0,0-.01,0-.01,0-.12,0-.21-.1-.21-.22s.1-.22.22-.22h.97s1.61,0,1.61,0c.14,0,.25-.11.25-.25s-.11-.25-.25-.25h-.95s0,0,0,0h-1.08c-.14,0-.25-.11-.25-.25s.11-.25.25-.25h1.07s.22,0,.22,0h1.1c.14,0,.25-.11.25-.25,0-.14-.11-.25-.25-.25h-1.12s-.17,0-.17,0h-.85s0,0,0,0h-.25c-.14,0-.25-.11-.25-.25s.11-.25.25-.25h1.06s0,0,0,0h.59c.14,0,.25-.11.25-.25s-.11-.25-.25-.25h-1.1s-.36,0-.36,0h0s-.98,0-.98,0c-.12,0-.22-.1-.22-.22,0-.11.08-.2.19-.22,0,0,.03,0,.04,0h.94c.13,0,.23-.1.23-.23s-.1-.23-.23-.23h-1.12s-.04,0-.06,0h0s-.25,0-.25,0h-.22c-1.19,0-2.16,1.3-2.16,2.16,0,.92.97,2.16,2.16,2.16h.22s.25,0,.25,0h0Z"/>
                <g>
                  <path class="cls-2" d="M374.61,29.59c-.49-.2-1.01-.26-1.51-.2.4-.3.72-.71.92-1.21.33-.79.29-1.64-.05-2.36-.74.28-1.38.85-1.7,1.64-.31.76-.29,1.57,0,2.27.29.7.84,1.3,1.6,1.61.79.33,1.64.29,2.36-.05-.28-.74-.85-1.38-1.64-1.7Z"/>
                  <rect class="cls-2" x="375.79" y="27.49" width="1.1" height="1.1" transform="translate(206.46 365.03) rotate(-67.51)"/>
                  <rect class="cls-2" x="375.19" y="26.04" width="1.1" height="1.1" transform="translate(207.44 363.58) rotate(-67.51)"/>
                  <rect class="cls-2" x="376.39" y="28.95" width="1.1" height="1.1" transform="translate(205.49 366.49) rotate(-67.51)"/>
                </g>
              </g>
            </g>
          </g>
          <g>
            <g>
              <g>
                <polygon class="cls-2" points="328.1 6.1 329.91 3.78 332.46 5.23 334.01 4.92 330.54 2.96 331.82 1.31 332.73 1.83 332.09 2.65 332.99 3.16 334.27 1.52 331.56 -.02 326.55 6.41 328.1 6.1"/>
                <g>
                  <polygon class="cls-2" points="376.18 34.27 378.5 36.08 377.05 38.64 377.35 40.18 379.32 36.72 380.96 37.99 380.45 38.9 379.62 38.26 379.11 39.17 380.75 40.45 382.3 37.73 375.87 32.72 376.18 34.27"/>
                  <polygon class="cls-2" points="299.93 54.17 297.61 52.37 299.06 49.81 298.75 48.27 296.78 51.73 295.14 50.45 295.66 49.55 296.48 50.19 296.99 49.28 295.35 48 293.81 50.72 300.23 55.73 299.93 54.17"/>
                </g>
              </g>
              <g>
                <g>
                  <polygon class="cls-2" points="304.06 24.3 303.69 21.38 306.53 20.6 307.4 19.29 303.56 20.35 303.31 18.29 304.31 18.01 304.44 19.04 305.44 18.77 305.19 16.7 302.17 17.53 303.18 25.62 304.06 24.3"/>
                  <polygon class="cls-2" points="372.05 64.15 372.41 67.06 369.58 67.84 368.7 69.15 372.54 68.09 372.8 70.16 371.79 70.44 371.66 69.4 370.66 69.68 370.92 71.75 373.93 70.92 372.93 62.83 372.05 64.15"/>
                </g>
                <polygon class="cls-2" points="357.97 10.23 360.89 9.87 361.67 12.7 362.98 13.57 361.92 9.73 363.99 9.48 364.27 10.48 363.23 10.61 363.51 11.61 365.58 11.36 364.74 8.35 356.66 9.35 357.97 10.23"/>
              </g>
            </g>
            <g>
              <g>
                <polygon class="cls-2" points="314.27 12.81 315.05 9.97 317.97 10.34 319.27 9.46 315.32 8.97 315.88 6.96 316.91 7.09 316.63 8.1 317.67 8.23 318.22 6.22 315.12 5.83 312.95 13.69 314.27 12.81"/>
                <g>
                  <polygon class="cls-2" points="369.47 20.44 372.3 21.22 371.94 24.14 372.81 25.45 373.3 21.49 375.31 22.05 375.18 23.08 374.18 22.81 374.05 23.84 376.06 24.39 376.44 21.29 368.59 19.12 369.47 20.44"/>
                  <polygon class="cls-2" points="306.64 68.01 303.8 67.23 304.16 64.31 303.29 63 302.8 66.95 300.79 66.4 300.92 65.37 301.92 65.64 302.05 64.61 300.04 64.05 299.66 67.16 307.52 69.32 306.64 68.01"/>
                </g>
              </g>
              <g>
                <g>
                  <polygon class="cls-2" points="299.02 38.83 297.57 36.27 299.89 34.46 300.19 32.92 297.05 35.37 296.02 33.56 296.85 32.92 297.36 33.82 298.18 33.18 297.15 31.37 294.69 33.29 298.71 40.38 299.02 38.83"/>
                  <polygon class="cls-2" points="377.08 49.62 378.53 52.18 376.22 53.98 375.91 55.53 379.05 53.08 380.08 54.89 379.26 55.53 378.74 54.62 377.92 55.26 378.95 57.08 381.41 55.16 377.39 48.07 377.08 49.62"/>
                </g>
                <polygon class="cls-2" points="343.45 5.19 346 3.74 347.81 6.06 349.35 6.37 346.91 3.23 348.72 2.2 349.36 3.02 348.45 3.53 349.09 4.35 350.9 3.33 348.98 .86 341.9 4.88 343.45 5.19"/>
              </g>
            </g>
          </g>
          <g>
            <g>
              <g>
                <g>
                  <polygon class="cls-2" points="332.14 13.68 330.66 12.69 329.67 14.17 332.14 13.68"/>
                  <polygon class="cls-2" points="334.3 13.25 332.81 12.26 331.82 13.74 334.3 13.25"/>
                </g>
                <g>
                  <g>
                    <polygon class="cls-2" points="307.5 50.13 306.51 51.62 308 52.61 307.5 50.13"/>
                    <polygon class="cls-2" points="307.08 47.98 306.08 49.46 307.57 50.45 307.08 47.98"/>
                  </g>
                  <g>
                    <polygon class="cls-2" points="368.54 37.99 370.02 38.99 369.03 40.47 368.54 37.99"/>
                    <polygon class="cls-2" points="368.11 35.84 369.59 36.83 368.6 38.31 368.11 35.84"/>
                  </g>
                </g>
              </g>
              <g>
                <g>
                  <g>
                    <polygon class="cls-2" points="312.27 26.8 310.52 27.15 310.87 28.9 312.27 26.8"/>
                    <polygon class="cls-2" points="313.49 24.98 311.74 25.32 312.09 27.07 313.49 24.98"/>
                  </g>
                  <g>
                    <polygon class="cls-2" points="364.01 61.37 364.36 63.12 362.61 63.47 364.01 61.37"/>
                    <polygon class="cls-2" points="365.23 59.55 365.58 61.3 363.83 61.64 365.23 59.55"/>
                  </g>
                </g>
                <g>
                  <g>
                    <polygon class="cls-2" points="320.63 70 320.98 71.75 322.73 71.41 320.63 70"/>
                    <polygon class="cls-2" points="318.8 68.78 319.15 70.53 320.9 70.18 318.8 68.78"/>
                  </g>
                  <g>
                    <polygon class="cls-2" points="355.2 18.26 356.95 17.92 357.3 19.66 355.2 18.26"/>
                    <polygon class="cls-2" points="353.37 17.04 355.12 16.69 355.47 18.44 353.37 17.04"/>
                  </g>
                </g>
              </g>
            </g>
            <g>
              <g>
                <g>
                  <g>
                    <polygon class="cls-2" points="320.9 18.26 319.15 17.92 318.8 19.66 320.9 18.26"/>
                    <polygon class="cls-2" points="322.73 17.04 320.98 16.69 320.63 18.44 322.73 17.04"/>
                  </g>
                  <g>
                    <polygon class="cls-2" points="355.47 70 355.12 71.75 353.37 71.41 355.47 70"/>
                    <polygon class="cls-2" points="357.3 68.78 356.95 70.53 355.2 70.18 357.3 68.78"/>
                  </g>
                </g>
                <g>
                  <g>
                    <polygon class="cls-2" points="312.09 61.37 311.74 63.12 313.49 63.47 312.09 61.37"/>
                    <polygon class="cls-2" points="310.87 59.55 310.52 61.3 312.27 61.64 310.87 59.55"/>
                  </g>
                  <g>
                    <polygon class="cls-2" points="363.83 26.8 365.58 27.15 365.23 28.9 363.83 26.8"/>
                    <polygon class="cls-2" points="362.61 24.98 364.36 25.32 364.01 27.07 362.61 24.98"/>
                  </g>
                </g>
              </g>
              <g>
                <g>
                  <g>
                    <polygon class="cls-2" points="307.57 37.99 306.08 38.99 307.08 40.47 307.57 37.99"/>
                    <polygon class="cls-2" points="308 35.84 306.51 36.83 307.5 38.31 308 35.84"/>
                  </g>
                  <g>
                    <polygon class="cls-2" points="368.6 50.13 369.59 51.62 368.11 52.61 368.6 50.13"/>
                    <polygon class="cls-2" points="369.03 47.98 370.02 49.46 368.54 50.45 369.03 47.98"/>
                  </g>
                </g>
                <g>
                  <polygon class="cls-2" points="343.96 13.68 345.45 12.69 346.44 14.17 343.96 13.68"/>
                  <polygon class="cls-2" points="341.81 13.25 343.29 12.26 344.28 13.74 341.81 13.25"/>
                </g>
              </g>
            </g>
          </g>
        </g>
        <g>
          <path class="cls-2" d="M338.05,55.11c-6,0-10.88-4.88-10.88-10.88s4.88-10.88,10.88-10.88,10.88,4.88,10.88,10.88-4.88,10.88-10.88,10.88ZM338.05,34.36c-5.44,0-9.86,4.43-9.86,9.86s4.43,9.86,9.86,9.86,9.86-4.43,9.86-9.86-4.43-9.86-9.86-9.86Z"/>
          <path class="cls-2" d="M338.05,33.44c-5.95,0-10.79,4.84-10.79,10.79s4.84,10.79,10.79,10.79c5.95,0,10.79-4.84,10.79-10.79,0-5.95-4.84-10.79-10.79-10.79ZM338.05,54.18c-5.49,0-9.96-4.47-9.96-9.96,0-5.49,4.47-9.96,9.96-9.96,5.49,0,9.96,4.47,9.96,9.96,0,5.49-4.47,9.96-9.96,9.96Z"/>
          <path class="cls-2" d="M338.05,52.8c-4.73,0-8.58-3.85-8.58-8.58s3.85-8.58,8.58-8.58,8.58,3.85,8.58,8.58-3.85,8.58-8.58,8.58ZM338.05,36.66c-4.17,0-7.56,3.39-7.56,7.56s3.39,7.56,7.56,7.56,7.56-3.39,7.56-7.56-3.39-7.56-7.56-7.56Z"/>
          <path class="cls-2" d="M338.05,35.74c-4.68,0-8.48,3.81-8.48,8.48,0,4.68,3.81,8.48,8.48,8.48,4.68,0,8.48-3.81,8.48-8.48,0-4.68-3.81-8.48-8.48-8.48ZM338.05,51.88c-4.22,0-7.66-3.43-7.66-7.65,0-4.22,3.43-7.66,7.66-7.66,4.22,0,7.66,3.43,7.66,7.66s-3.43,7.65-7.66,7.65Z"/>
          <path class="cls-2" d="M338.05,50.5c-3.46,0-6.27-2.81-6.27-6.27s2.81-6.27,6.27-6.27,6.27,2.81,6.27,6.27-2.81,6.27-6.27,6.27ZM338.05,38.97c-2.9,0-5.25,2.36-5.25,5.25s2.36,5.25,5.25,5.25,5.25-2.36,5.25-5.25-2.36-5.25-5.25-5.25Z"/>
          <path class="cls-2" d="M338.05,38.05c-3.41,0-6.18,2.77-6.18,6.18,0,3.41,2.77,6.18,6.18,6.18s6.18-2.77,6.18-6.18c0-3.41-2.77-6.18-6.18-6.18ZM338.05,49.57c-2.95,0-5.35-2.4-5.35-5.35,0-2.95,2.4-5.35,5.35-5.35,2.95,0,5.35,2.4,5.35,5.35,0,2.95-2.4,5.35-5.35,5.35Z"/>
          <path class="cls-2" d="M338.05,48.19c-2.19,0-3.97-1.78-3.97-3.97s1.78-3.97,3.97-3.97,3.97,1.78,3.97,3.97-1.78,3.97-3.97,3.97ZM338.05,41.28c-1.63,0-2.95,1.32-2.95,2.95s1.32,2.95,2.95,2.95,2.95-1.32,2.95-2.95-1.32-2.95-2.95-2.95Z"/>
          <path class="cls-2" d="M338.05,40.35c-2.13,0-3.87,1.74-3.87,3.87s1.74,3.87,3.87,3.87c2.13,0,3.87-1.74,3.87-3.87,0-2.14-1.74-3.87-3.87-3.87ZM338.05,47.27c-1.68,0-3.04-1.37-3.04-3.04,0-1.68,1.37-3.04,3.04-3.04s3.04,1.37,3.04,3.04c0,1.68-1.37,3.04-3.04,3.04Z"/>
          <path class="cls-2" d="M338.05,45.89c-.92,0-1.66-.75-1.66-1.66s.75-1.66,1.66-1.66,1.66.75,1.66,1.66-.75,1.66-1.66,1.66ZM338.05,43.58c-.35,0-.64.29-.64.64s.29.64.64.64.64-.29.64-.64-.29-.64-.64-.64Z"/>
          <path class="cls-2" d="M338.05,42.66c-.86,0-1.57.7-1.57,1.57s.7,1.57,1.57,1.57,1.57-.7,1.57-1.57-.7-1.57-1.57-1.57ZM338.05,44.96c-.41,0-.74-.33-.74-.74s.33-.74.74-.74.74.33.74.74-.33.74-.74.74Z"/>
        </g>
      </g>
    </g>
  </g>
</svg>